<?xml version="1.0" encoding="iso-8859-1"?><!DOCTYPE svg PUBLIC "-//W3C//DTD SVG 1.1//EN" "http://www.w3.org/Graphics/SVG/1.1/DTD/svg11.dtd"><svg viewBox="0 0 512 512" xmlns="http://www.w3.org/2000/svg" xmlns:xlink="http://www.w3.org/1999/xlink"><style>:root>svg{display:none}:root>svg:target{display:block}</style><svg viewBox="0 0 306 306" id="arrow-down" xmlns="http://www.w3.org/2000/svg"><path d="M270.3 58.65L153 175.95 35.7 58.65 0 94.35l153 153 153-153z"/></svg><svg viewBox="0 0 357 357" id="arrow-up" xmlns="http://www.w3.org/2000/svg"><path d="M29.4 151l45.1 45.1 104.9-105L284.3 196l45.1-45.1L179.4 1l-150 150zm0 159.3l45.1 45.1 104.9-104.9 104.9 104.9 45.1-45.1-150-150-150 150z"/></svg><svg viewBox="0 0 199.404 199.404" id="back" xmlns="http://www.w3.org/2000/svg"><path d="M135.412 0L35.709 99.702l99.703 99.702 28.283-28.285-71.418-71.417 71.418-71.417z"/></svg><svg fill="none" viewBox="0 0 25 32" id="bonus_arrow" xmlns="http://www.w3.org/2000/svg"><path d="M1 5.886a14.567 14.567 0 0111.17.58c6.654 3.168 9.812 10.714 7.668 17.549l-1.777 3.733" stroke="#AFAFAF" stroke-miterlimit="10"/><path d="M16.268 22.697l1.791 5.05 5.05-1.791" stroke="#AFAFAF" stroke-miterlimit="10" stroke-linejoin="bevel"/></svg><svg viewBox="0 0 512 512" id="calendar" xmlns="http://www.w3.org/2000/svg"><circle cx="386" cy="210" r="20"/><path d="M432 40h-26V20c0-11.046-8.954-20-20-20s-20 8.954-20 20v20h-91V20c0-11.046-8.954-20-20-20s-20 8.954-20 20v20h-90V20c0-11.046-8.954-20-20-20s-20 8.954-20 20v20H80C35.888 40 0 75.888 0 120v312c0 44.112 35.888 80 80 80h153c11.046 0 20-8.954 20-20s-8.954-20-20-20H80c-22.056 0-40-17.944-40-40V120c0-22.056 17.944-40 40-40h25v20c0 11.046 8.954 20 20 20s20-8.954 20-20V80h90v20c0 11.046 8.954 20 20 20s20-8.954 20-20V80h91v20c0 11.046 8.954 20 20 20s20-8.954 20-20V80h26c22.056 0 40 17.944 40 40v114c0 11.046 8.954 20 20 20s20-8.954 20-20V120c0-44.112-35.888-80-80-80z"/><path d="M391 270c-66.72 0-121 54.28-121 121s54.28 121 121 121 121-54.28 121-121-54.28-121-121-121zm0 202c-44.663 0-81-36.336-81-81s36.337-81 81-81 81 36.336 81 81-36.337 81-81 81z"/><path d="M420 371h-9v-21c0-11.046-8.954-20-20-20s-20 8.954-20 20v41c0 11.046 8.954 20 20 20h29c11.046 0 20-8.954 20-20s-8.954-20-20-20z"/><circle cx="299" cy="210" r="20"/><circle cx="212" cy="297" r="20"/><circle cx="125" cy="210" r="20"/><circle cx="125" cy="297" r="20"/><circle cx="125" cy="384" r="20"/><circle cx="212" cy="384" r="20"/><circle cx="212" cy="210" r="20"/></svg><svg viewBox="0 0 342.357 342.357" id="check" xmlns="http://www.w3.org/2000/svg"><path d="M290.04 33.286L118.861 204.427l-66.541-66.52L0 190.226l118.862 118.845L342.357 85.606z"/></svg><svg viewBox="0 0 78.369 78.369" id="check2" xmlns="http://www.w3.org/2000/svg"><path d="M78.049 19.015L29.458 67.606a1.094 1.094 0 01-1.548 0L.32 40.015a1.094 1.094 0 010-1.547l6.704-6.704a1.095 1.095 0 011.548 0l20.113 20.112 41.113-41.113a1.095 1.095 0 011.548 0l6.703 6.704a1.094 1.094 0 010 1.548z"/></svg><svg viewBox="0 0 256 256" id="chevron-left" xmlns="http://www.w3.org/2000/svg"><path d="M207.093 30.187L176.907 0l-128 128 128 128 30.186-30.187L109.28 128z"/></svg><svg viewBox="0 0 256 256" id="chevron-right" xmlns="http://www.w3.org/2000/svg"><path d="M79.093 0L48.907 30.187 146.72 128l-97.813 97.813L79.093 256l128-128z"/></svg><svg viewBox="0 0 512 512" id="discount" xmlns="http://www.w3.org/2000/svg"><path d="M508.348 368.418c-9.496-22.215-34.782-32.078-56.606-24.797l-90.84 30.277a45.125 45.125 0 00-2.215-11.136c-3.8-11.403-11.816-20.645-22.57-26.02l-124.39-62.195a74.817 74.817 0 00-54.145-5.035l-37.113 10.605c-3.32-21.562-21.996-38.12-44.473-38.12H15c-8.285 0-15 6.714-15 15v209.995c0 8.281 6.715 15 15 15h90.996c8.285 0 15-6.719 15-15v-8.043l77.55 38.774c34.716 17.343 76.09 19.379 113.509 3.324l172.656-73.559c22.844-9.781 33.434-36.218 23.637-59.07zM90.996 451.992H30V271.996h46c8.27 0 14.996 6.727 14.996 15zm381.934-52.09l-172.668 73.563c-28.84 12.37-60.973 11.078-88.305-2.578l-90.96-45.477V311.164l44.827-12.805a44.86 44.86 0 0132.488 3.02l124.391 62.195c7.399 3.7 10.41 12.727 6.711 20.13-3.773 7.542-12.851 10.347-20.129 6.706l-74.215-37.105c-18.933-9.47-42.226-4.301-55.379 12.285-5.148 6.488-4.062 15.926 2.43 21.07 6.488 5.149 15.926 4.063 21.074-2.43 4.383-5.527 12.145-7.25 18.457-4.093l74.215 37.105c16.32 8.16 36.34 5.735 50.219-6.781l115.148-38.383c7.489-2.5 16.375.754 19.532 8.145 3.312 7.718-.364 16.476-7.836 19.68zm0 0M330.965 107c0 8.281-6.715 15-15 15s-15-6.719-15-15c0-8.285 6.715-15 15-15s15 6.715 15 15zm0 0M390.96 166.996c0 8.285-6.714 15-14.995 15-8.285 0-15-6.715-15-15 0-8.281 6.715-15 15-15 8.281 0 14.996 6.719 14.996 15zm0 0M386.598 96.39c-5.856-5.855-15.356-5.855-21.211 0l-60 60c-5.86 5.86-5.86 15.356 0 21.212 5.855 5.859 15.355 5.859 21.21 0l60-59.997c5.86-5.859 5.86-15.355 0-21.214zm0 0"/><path d="M186.625 178.71l149.996 119.997a14.974 14.974 0 009.371 3.29c3.301 0 6.602-1.087 9.332-3.259L506.32 178.742a15.002 15.002 0 00-9.332-26.746h-45.996V15c0-8.285-6.719-15-15-15H255.996c-8.285 0-15 6.715-15 15v136.996h-45a14.993 14.993 0 00-14.152 10.035 15.003 15.003 0 004.781 16.68zm69.371 3.286c8.281 0 15-6.715 15-15V30h149.996v136.996c0 8.285 6.715 15 15 15h18.016L346.023 267.81l-107.265-85.813zm0 0"/></svg><svg viewBox="0 0 512 512" id="gift" xmlns="http://www.w3.org/2000/svg"><path d="M272.696 280.342h183.118V512H272.696zM56.186 280.342h183.118V512H56.186zM398.762 94.432a63.52 63.52 0 007.772-30.521C406.535 28.67 377.864 0 342.624 0c-26.065 0-52.735 13.468-73.168 36.951A130.25 130.25 0 00256 55.511a130.25 130.25 0 00-13.456-18.56C222.111 13.468 195.442 0 169.376 0c-35.24 0-63.911 28.671-63.911 63.911a63.512 63.512 0 007.772 30.521H26.2v152.519h213.104V94.432h33.391v152.519H485.8V94.432h-87.038zm-229.386 0c-16.828 0-30.52-13.692-30.52-30.521s13.692-30.52 30.52-30.52c30.299 0 59.106 30.993 67.489 61.04h-67.489zm173.248 0h-67.489c8.383-30.048 37.19-61.04 67.489-61.04 16.828 0 30.52 13.692 30.52 30.52-.001 16.829-13.692 30.52-30.52 30.52z"/></svg><svg viewBox="0 0 512 512" id="gift-outline" xmlns="http://www.w3.org/2000/svg"><path d="M398.762 94.432a63.52 63.52 0 007.772-30.521C406.535 28.67 377.864 0 342.624 0c-26.065 0-52.735 13.468-73.168 36.951A130.25 130.25 0 00256 55.511a130.25 130.25 0 00-13.456-18.56C222.111 13.468 195.442 0 169.376 0c-35.24 0-63.911 28.671-63.911 63.911a63.512 63.512 0 007.772 30.521H26.2v185.911h29.987V512h399.627V280.343H485.8V94.432h-87.038zM169.376 33.391c30.299 0 59.106 30.993 67.489 61.04h-67.489c-16.828 0-30.52-13.69-30.52-30.521.001-16.828 13.692-30.519 30.52-30.519zm69.928 445.218H89.578V280.343h149.727v198.266zm0-231.658H59.591V127.823h179.713v119.128zm103.32-213.56c16.828 0 30.52 13.692 30.52 30.52 0 16.829-13.692 30.521-30.52 30.521h-67.489c8.383-30.048 37.189-61.041 67.489-61.041zm79.798 445.218H272.696V280.343h149.727v198.266zm29.987-231.657H272.696V127.823h179.713v119.129z"/></svg><svg viewBox="0 0 416.208 416.209" id="lock" xmlns="http://www.w3.org/2000/svg"><path d="M344.757 166.9h-20.543v-50.792C324.214 52.086 272.128 0 208.107 0 144.084 0 91.996 52.086 91.996 116.108V166.9H71.453c-6.635 0-12.012 5.377-12.012 12.011v225.286c0 6.635 5.377 12.012 12.012 12.012h273.305c6.633 0 12.01-5.377 12.01-12.012V178.911c-.001-6.634-5.378-12.011-12.011-12.011zM226.833 304.012v47.961a7.586 7.586 0 01-7.586 7.586h-22.286a7.586 7.586 0 01-7.586-7.586v-47.961c-8.287-5.875-13.699-15.535-13.699-26.466 0-17.907 14.518-32.427 32.428-32.427 17.908 0 32.426 14.52 32.426 32.427.001 10.931-5.411 20.591-13.697 26.466zM268.779 166.9H147.431v-50.792c0-33.456 27.219-60.673 60.676-60.673 33.455 0 60.672 27.217 60.672 60.673V166.9z"/></svg><svg viewBox="0 0 511.626 511.626" id="mail" xmlns="http://www.w3.org/2000/svg"><path d="M49.106 178.729c6.472 4.567 25.981 18.131 58.528 40.685 32.548 22.554 57.482 39.92 74.803 52.099 1.903 1.335 5.946 4.237 12.131 8.71 6.186 4.476 11.326 8.093 15.416 10.852 4.093 2.758 9.041 5.852 14.849 9.277 5.806 3.422 11.279 5.996 16.418 7.7 5.14 1.718 9.898 2.569 14.275 2.569h.575c4.377 0 9.137-.852 14.277-2.569 5.137-1.704 10.615-4.281 16.416-7.7 5.804-3.429 10.752-6.52 14.845-9.277 4.093-2.759 9.229-6.376 15.417-10.852 6.184-4.477 10.232-7.375 12.135-8.71 17.508-12.179 62.051-43.11 133.615-92.79 13.894-9.703 25.502-21.411 34.827-35.116 9.332-13.699 13.993-28.07 13.993-43.105 0-12.564-4.523-23.319-13.565-32.264-9.041-8.947-19.749-13.418-32.117-13.418H45.679c-14.655 0-25.933 4.948-33.832 14.844C3.949 79.562 0 91.934 0 106.779c0 11.991 5.236 24.985 15.703 38.974 10.466 13.99 21.604 24.983 33.403 32.976z"/><path d="M483.072 209.275c-62.424 42.251-109.824 75.087-142.177 98.501-10.849 7.991-19.65 14.229-26.409 18.699-6.759 4.473-15.748 9.041-26.98 13.702-11.228 4.668-21.692 6.995-31.401 6.995h-.578c-9.707 0-20.177-2.327-31.405-6.995-11.228-4.661-20.223-9.229-26.98-13.702-6.755-4.47-15.559-10.708-26.407-18.699-25.697-18.842-72.995-51.68-141.896-98.501C17.987 202.047 8.375 193.762 0 184.437v226.685c0 12.57 4.471 23.319 13.418 32.265 8.945 8.949 19.701 13.422 32.264 13.422h420.266c12.56 0 23.315-4.473 32.261-13.422 8.949-8.949 13.418-19.694 13.418-32.265V184.437c-8.186 9.132-17.7 17.417-28.555 24.838z"/></svg><svg viewBox="0 0 512 512" id="mes_messenger" xmlns="http://www.w3.org/2000/svg"><path d="M0 237c0 74.6 37.2 141.1 95.4 184.6V512l87.2-47.8c23.3 6.4 47.9 9.9 73.4 9.9 141.4 0 256-106.1 256-237S397.4 0 256 0 0 106.1 0 237zm229-66.3l66.8 69.5 125.6-69.5-140 148.5-65.2-69.5-127.1 69.5L229 170.7z"/></svg><svg viewBox="0 0 512 512" id="mes_phone" xmlns="http://www.w3.org/2000/svg"><path d="M362.5 0H149.3c-35.2 0-64 28.8-64 64v384c0 35.2 28.8 64 64 64h213.4c35.2 0 64-28.8 64-64V64c-.2-35.2-28.8-64-64.2-64zM149.3 42.6h213.4c11.8 0 21.4 9.6 21.4 21.4v341.4H127.9V64c0-11.8 9.6-21.4 21.4-21.4z"/></svg><svg viewBox="0 0 512 512" id="mes_telegram" xmlns="http://www.w3.org/2000/svg"><path d="M201 323.9l-8.4 119.2c12.2 0 17.4-5.2 23.6-11.4l56.8-54.4 117.8 86.2c21.6 12 36.8 5.6 42.6-19.8l77.2-362c6.8-32-11.6-44.4-32.6-36.6L23.8 218.9c-31 12-30.6 29.4-5.2 37.2l116 36.2 269.8-168.8c12.8-8.4 24.2-3.8 14.8 4.6L201 323.9z"/></svg><svg viewBox="0 0 512 512" id="mes_viber" xmlns="http://www.w3.org/2000/svg"><path d="M485.1 295.3c15.1-128-7.4-208.9-48-245.3-65.5-62.5-286.9-71.7-365.4 2.8-35.2 36.4-47.6 89.8-49 156.1s-3 190.1 112.5 223.8v51.4s-.8 20.7 12.5 25.1c15.1 5 22.1-4.8 69.3-61.3 79 6.8 139.8-8.8 146.7-11.1 16.5-5.5 106.9-17.7 121.4-141.5zM225.3 411.6s-50 62.3-65.7 78.6c-5.2 5.2-10.8 4.8-10.6-5.6 0-6.8.4-85.2.4-85.2-98-28.1-92.2-133.6-91.2-189 1-55.2 11.1-100.5 41-131C168 15 362.1 29.3 411.5 75.9c60.5 53.6 39 204.9 39 210.1-12.3 103.5-85.6 110.1-99.2 114.5-5.5 1.9-58.9 15.5-126 11.1z"/><path d="M253 91.4c-8.2 0-8.2 12.7 0 12.7 63.5.4 115.7 44.6 116.3 125.8 0 8.6 12.5 8.4 12.3 0C381 142.6 323.9 92 253 91.4z"/><path d="M336.4 216.7c-.2 8.4 12.3 8.8 12.3.2 1-48.2-28.7-87.8-84.4-92-8.2-.6-9 12.3-.8 12.7 48.4 3.8 73.9 36.8 72.9 79.1zM323.1 271.4c-10.6-6.2-21.1-2.4-25.7 3.6l-9.2 11.9c-4.8 6.2-13.5 5.2-13.5 5.2-63.9-16.9-81.2-83.8-81.2-83.8s-.8-9 5.2-13.9l11.5-9.6c5.8-4.6 9.4-15.7 3.6-26.5-15.7-28.5-26.3-38.2-31.7-45.6-5.6-7.2-14.1-8.8-23.1-4h-.2c-18.3 10.8-38.4 30.9-32.1 51.6 11 21.9 31.1 91.4 95.4 144 30.3 24.9 78 50.4 98.4 56.1l.2.2c19.9 6.6 39.4-14.3 49.8-33.3v-.2c4.6-9.2 3.2-17.7-3.6-23.5-11.8-11.1-29.7-23.8-43.8-32.2z"/><path d="M273.1 172.3c20.5 1.2 30.3 11.9 31.5 33.6.4 8.6 12.7 8 12.3-.6-1.4-28.7-16.3-44.6-43-46-8.4-.4-9 12.6-.8 13z"/></svg><svg viewBox="0 0 512 512" id="mes_vk" xmlns="http://www.w3.org/2000/svg"><path d="M425.4 278.3c-8.2-10.4-5.8-15.2 0-24.4 0 0 68.3-94.5 75.3-126.5 3.6-11.6 0-20.2-17-20.2h-55.9c-14.2 0-20.8 7.4-24.4 15.6 0 0-28.6 68.1-68.7 112.3-13 12.8-19 16.8-26.2 16.8-3.6 0-9-4-9-15.8V127.4c0-14-4-20.2-15.8-20.2h-87.9c-9 0-14.2 6.6-14.2 12.6 0 13.2 20.2 16.4 22.2 53.5v80.9c0 17.8-3.2 21-10.4 21-19 0-65.1-68.5-92.5-146.6-5.6-15.2-11-21.4-25.2-21.4H19.9c-16 0-19.2 7.4-19.2 15.6 0 14.6 19 86.7 88.3 182.2 46.3 65.1 111.3 100.5 170.6 100.5 35.6 0 40-7.8 40-21.4 0-62.3-3.2-68.1 14.6-68.1 8.2 0 22.6 4 55.7 35.6 38 37.4 44.2 53.9 65.5 53.9h55.9c16 0 24-7.8 19.4-23.4-10.2-32.5-82.1-99.4-85.3-103.8z"/></svg><svg version="1.1" id="mes_whatsapp" x="0" y="0" viewBox="0 0 512 512" xml:space="preserve" xmlns="http://www.w3.org/2000/svg"><style>.atst0{fill:#050505}</style><path d="M373.4 305.2l-.2 1.6c-47-23.4-51.8-26.4-57.8-17.4-4.2 6.4-16.4 20.6-20.2 24.8-3.8 4.2-7.4 4.4-13.8 1.6-6.4-3.2-27-10-51.2-31.6-19-17-31.6-37.8-35.4-44.2-6.2-10.8 6.8-12.4 18.8-34.8 2.2-4.4 1-8-.6-11.2-1.6-3.2-14.4-34.6-19.6-47-5.2-12.4-10.4-10.8-14.4-10.8-12.2-1-21.2-.8-29.2 7.4-34.4 37.8-25.8 76.8 3.8 118.4 57.8 75.8 88.8 89.8 145.2 109 15.2 4.8 29.2 4.2 40 2.6 12.2-2 37.6-15.4 43-30.4 5.4-15 5.4-27.6 3.8-30.4-1.6-3.2-5.8-4.8-12.2-7.6z"/><path class="atst0" d="M437.8 73.6C273.8-85 2.2 30 2.2 253.8c0 44.8 11.8 88.4 34 126.8L0 512l135.2-35.2c168.6 91 376.8-29.8 376.8-223 0-67.8-26.4-131.6-74.6-179.4l.4-.8zm31.6 179.6c-.2 162.8-178.8 264.6-320.2 181.4l-7.6-4.6-80 20.8L83 373l-5-8C-10 225 91 42 257.8 42c56.6 0 109.8 22 149.8 62 39.8 39.6 61.8 92.8 61.8 149.2z"/></svg><svg viewBox="0 0 459 459" id="phone" xmlns="http://www.w3.org/2000/svg"><path d="M91.8 198.9c35.7 71.4 96.9 130.05 168.3 168.3l56.1-56.1c7.649-7.649 17.85-10.199 25.5-5.1 28.05 10.2 58.649 15.3 91.8 15.3 15.3 0 25.5 10.2 25.5 25.5v86.7c0 15.3-10.2 25.5-25.5 25.5C193.8 459 0 265.2 0 25.5 0 10.2 10.2 0 25.5 0h89.25c15.3 0 25.5 10.2 25.5 25.5 0 30.6 5.1 61.2 15.3 91.8 2.55 7.65 0 17.85-5.1 25.5L91.8 198.9z"/></svg><svg preserveAspectRatio="xMidYMid" viewBox="0 0 47.75 48" id="quicon__anchor" xmlns="http://www.w3.org/2000/svg"><defs><style>.avcls-1{fill:#1b1b1b;fill-rule:evenodd}</style></defs><path d="M47.33 34.759a.99.99 0 01-1.388-.227l-2.887-4.026C42.119 40.308 33.876 48 23.872 48 13.867 48 5.624 40.307 4.688 30.504l-2.886 4.028a.993.993 0 01-1.388.227 1 1 0 01-.226-1.393l4.293-5.992a.988.988 0 01.695-.408.968.968 0 01.769.242l5.653 4.993a1 1 0 01.09 1.409.992.992 0 01-1.404.09l-3.591-3.172c.903 8.357 7.741 14.938 16.184 15.424V11h-7.002c-.549 0-1.176-.395-1.176-.947 0-.552.445-.999.994-.999h5.328c-1.276-.903-2.122-2.379-2.122-4.062 0-2.754 2.231-4.995 4.973-4.995s4.973 2.241 4.973 4.995c0 1.683-.846 3.159-2.122 4.062h4.885c.549 0 .994.447.994.999s-.178.947-.727.947h-7.008v34.952c8.444-.486 15.281-7.068 16.185-15.425L37.46 33.7a.99.99 0 01-1.404-.09 1.001 1.001 0 01.089-1.409l5.652-4.993a.995.995 0 011.464.166l4.295 5.992a1 1 0 01-.226 1.393zM26.856 4.992a2.995 2.995 0 00-2.984-2.998 2.995 2.995 0 00-2.984 2.998 2.993 2.993 0 002.984 2.994 2.993 2.993 0 002.984-2.994z" class="avcls-1"/></svg><svg preserveAspectRatio="xMidYMid" viewBox="0 0 47.907 48" id="quicon__badge" xmlns="http://www.w3.org/2000/svg"><defs><style>.awcls-1{fill:#1b1b1b;fill-rule:evenodd}</style></defs><path d="M47.746 38.492a1.002 1.002 0 01-.97 1.502l-8.274-.922-3.965 8.358a1 1 0 01-.862.569l-.04.001a.997.997 0 01-.864-.5l-8.836-15.335L15.102 47.5a.994.994 0 01-.951.496.995.995 0 01-.85-.653l-3.011-8.271-9.207.923c-.37.03-.737-.139-.94-.456a1.001 1.001 0 01-.018-1.047l9.279-15.773c.01-.018.028-.028.04-.045A15.908 15.908 0 017.969 16c0-8.822 7.163-16 15.966-16 8.804 0 15.966 7.178 15.966 16 0 2.383-.537 4.637-1.473 6.671.01.015.027.024.036.04l9.282 15.781zm-44.903-.683l8.02-.804c.446-.044.881.224 1.037.652l2.543 6.988 7.374-12.804A15.97 15.97 0 0110.555 24.7L2.843 37.809zM23.935 2c-7.703 0-13.97 6.28-13.97 14s6.267 14 13.97 14c7.704 0 13.971-6.28 13.971-14S31.639 2 23.935 2zm13.382 22.699c-2.484 3.824-6.55 6.513-11.263 7.143l7.496 13.01 3.454-7.282a.992.992 0 011.012-.564l6.997.779-7.696-13.086z" class="awcls-1"/></svg><svg preserveAspectRatio="xMidYMid" viewBox="0 0 40 48" id="quicon__bag" xmlns="http://www.w3.org/2000/svg"><defs><style>.axcls-1{fill:#1b1b1b;fill-rule:evenodd}</style></defs><path d="M38 48H2c-1.103 0-2-.897-2-2V10c0-1.103.897-2 2-2h11V4c0-2.206 1.794-4 4-4h6c2.206 0 4 1.794 4 4v4h11c1.103 0 2 .897 2 2v36c0 1.103-.897 2-2 2zM25 4c0-1.103-.897-2-2-2h-6c-1.103 0-2 .897-2 2v4h10V4zm2 6v3a1 1 0 01-2 0v-3H15v3a1 1 0 01-2 0v-3H2v36h35.997L38 10H27z" class="axcls-1"/></svg><svg preserveAspectRatio="xMidYMid" viewBox="0 0 46 48" id="quicon__bar-chart" xmlns="http://www.w3.org/2000/svg"><defs><style>.aycls-1{fill:#1b1b1b;fill-rule:evenodd}</style></defs><path d="M45 48H35a1 1 0 01-1-1V1a1 1 0 011-1h10a1 1 0 011 1v46a1 1 0 01-1 1zM44 2h-8v44h8V2zM28 48H18a1 1 0 01-1-1V25a1 1 0 011-1h10a1 1 0 011 1v22a1 1 0 01-1 1zm-1-22h-8v20h8V26zM11 48H1a1 1 0 01-1-1V17a1 1 0 011-1h10a1 1 0 011 1v30a1 1 0 01-1 1zm-1-30H2v28h8V18z" class="aycls-1"/></svg><svg preserveAspectRatio="xMidYMid" viewBox="0 0 47.969 48" id="quicon__basket-loaded" xmlns="http://www.w3.org/2000/svg"><defs><style>.azcls-1{fill:#1b1b1b;fill-rule:evenodd}</style></defs><path d="M47.914 15.277l-6.047 21a1 1 0 01-.96.723H20.833a.964.964 0 01-.354-.072c-.039-.014-.07-.036-.106-.055a1.024 1.024 0 01-.195-.131 1.021 1.021 0 01-.216-.281c-.022-.042-.043-.081-.059-.126-.009-.023-.024-.041-.031-.064L10.596 3.196C10.42 2.57 9.668 2 9.019 2H.998a.998.998 0 01-.999-1c0-.553.446-1 .999-1h8.021c1.545 0 3.082 1.166 3.501 2.655L15.702 14h4.07L30.98 4.245a1 1 0 011.311 0L43.498 14h3.456a1 1 0 01.96 1.277zM31.635 6.325L22.818 14h17.634l-8.817-7.675zM16.262 16l5.329 19h18.563l5.472-19H16.262zm7.214 25a3.503 3.503 0 013.497 3.5c0 1.93-1.569 3.5-3.497 3.5a3.503 3.503 0 01-3.497-3.5c0-1.93 1.569-3.5 3.497-3.5zm0 5c.826 0 1.499-.673 1.499-1.5s-.673-1.5-1.499-1.5c-.826 0-1.499.673-1.499 1.5s.673 1.5 1.499 1.5zm14.986-5a3.502 3.502 0 013.496 3.5c0 1.93-1.568 3.5-3.496 3.5a3.503 3.503 0 01-3.497-3.5c0-1.93 1.569-3.5 3.497-3.5zm0 5a1.5 1.5 0 000-3 1.501 1.501 0 000 3z" class="azcls-1"/></svg><svg preserveAspectRatio="xMidYMid" viewBox="0 0 41.844 48" id="quicon__bell" xmlns="http://www.w3.org/2000/svg"><defs><style>.bacls-1{fill:#1b1b1b;fill-rule:evenodd}</style></defs><path d="M41.548 41.11c-.348.565-.987.89-1.752.89H27.768c-.488 3.384-3.369 6-6.873 6-3.503 0-6.383-2.616-6.872-6H1.996c-.766 0-1.404-.324-1.752-.889-.348-.566-.351-1.285-.009-1.972l5.721-12.361v-11.78C5.956 6.728 12.658 0 20.895 0c8.239 0 14.942 6.728 14.942 14.998v11.78l5.734 12.387c.33.661.326 1.379-.023 1.945zM20.895 46c2.405 0 4.418-1.721 4.881-4h-9.761c.463 2.279 2.475 4 4.88 4zm13.042-18.579c-.002-.005-.001-.011-.004-.017-.026-.058-.03-.124-.045-.187-.015-.068-.039-.133-.04-.201 0-.006-.003-.01-.003-.016V14.998C33.845 7.831 28.035 2 20.895 2 13.756 2 7.948 7.831 7.948 14.998V27c0 .006-.003.011-.003.016-.001.068-.025.133-.04.2-.015.064-.019.13-.045.188l-.004.017L2.032 40h37.729l-5.824-12.579z" class="bacls-1"/></svg><svg preserveAspectRatio="xMidYMid" viewBox="0 0 48 44" id="quicon__briefcase" xmlns="http://www.w3.org/2000/svg"><defs><style>.bbcls-1{fill:#1b1b1b;fill-rule:evenodd}</style></defs><path d="M45.467 44H2.533C1.136 44 0 42.849 0 41.435v-30.87C0 9.151 1.136 8 2.533 8H15V4.2C15 1.884 16.884 0 19.2 0h9.6C31.116 0 33 1.884 33 4.2V8h12.467C46.864 8 48 9.151 48 10.565v30.87C48 42.849 46.864 44 45.467 44zM31 4.2c0-1.213-.987-2.2-2.2-2.2h-9.6c-1.213 0-2.2.987-2.2 2.2V8h14V4.2zm15 6.365c0-.306-.244-.565-.533-.565H2.533c-.294 0-.533.253-.533.565V21h18v-.143C20 18.73 21.794 17 24 17c1.048 0 2.043.396 2.803 1.117.773.738 1.197 1.71 1.197 2.74V21h18V10.565zM22 20.857v4.287c0 .478.204.936.575 1.29.382.365.888.566 1.425.566 1.103 0 2-.833 2-1.856v-4.287c0-.478-.204-.937-.575-1.291A2.064 2.064 0 0024 19c-1.103 0-2 .833-2 1.857zM46 23H28v2.144C28 27.27 26.206 29 24 29a4.044 4.044 0 01-2.806-1.12c-.77-.735-1.194-1.707-1.194-2.736V23H2v18.435c0 .312.239.565.533.565h42.934c.289 0 .533-.259.533-.565V23z" class="bbcls-1"/></svg><svg preserveAspectRatio="xMidYMid" viewBox="0 0 48 44" id="quicon__bubbles" xmlns="http://www.w3.org/2000/svg"><defs><style>.bccls-1{fill:#1b1b1b;fill-rule:evenodd}</style></defs><path d="M41.004 35.5c.449 4.3 2.708 6.796 2.731 6.822A1 1 0 0143 44h-.012c-.262-.003-6.322-.132-10.463-5.031h-3.529c-4.194-.001-8.17-1.091-11.497-3.153a1 1 0 111.053-1.7c3.012 1.866 6.625 2.853 10.448 2.853h4c.307 0 .597.141.786.383 2.171 2.764 5.132 3.886 7.109 4.34a15.618 15.618 0 01-1.937-6.662 1.001 1.001 0 01.49-.924C43.673 31.618 46 27.845 46 23.483c0-2.443-1.892-5.973-4.707-8.786a1 1 0 111.414-1.415C45.922 16.495 48 20.499 48 23.483c0 4.907-2.479 9.152-6.996 12.017zm-22-4.524h-3.529c-4.141 4.898-10.201 5.028-10.463 5.031H5a.998.998 0 01-.737-1.675c.023-.026 2.284-2.559 2.733-6.826C2.479 24.642 0 20.397 0 15.49 0 6.949 8.523 0 19 0s19 6.949 19 15.49c0 8.538-8.521 15.484-18.996 15.486zM19 2C9.626 2 2 8.051 2 15.49c0 4.362 2.326 8.134 6.552 10.622.324.192.513.549.49.925a15.627 15.627 0 01-1.937 6.662c1.977-.454 4.938-1.576 7.109-4.341a.999.999 0 01.786-.382h4c9.374 0 17-6.05 17-13.486C36 8.051 28.374 2 19 2z" class="bccls-1"/></svg><svg preserveAspectRatio="xMidYMid" viewBox="0 0 30 46" id="quicon__bulb" xmlns="http://www.w3.org/2000/svg"><defs><style>.bdcls-1{fill:#1b1b1b;fill-rule:evenodd}</style></defs><path d="M22.901 28.745c-.735.663-.902 2.094-.902 2.543v9.282a.976.976 0 01-.012.153C21.705 42.548 19.882 46 15 46c-4.881 0-6.705-3.452-6.987-5.277a.967.967 0 01-.012-.153v-9.279c-.004-.477-.176-1.861-.916-2.558C2.453 25.238 0 20.68 0 15.543 0 6.973 6.729 0 15 0s15 6.973 15 15.543c0 5.143-2.457 9.706-7.099 13.202zM15 44c4.084 0 4.88-2.931 4.999-3.52v-4.416a12.452 12.452 0 01-4.773.946c-2.173 0-4.014-.532-5.225-.997v4.468C10.116 41.054 10.906 44 15 44zm0-42C7.831 2 2 8.075 2 15.543c0 5.703 3.461 9.486 6.365 11.656.016.012.023.029.038.042.015.012.033.016.048.03 1.506 1.411 1.55 3.753 1.55 4.016v2.564c1.423.661 5.654 2.219 9.998.005v-2.569c0-.269.045-2.663 1.567-4.031.012-.01.027-.013.038-.022.013-.01.019-.025.032-.035C24.539 25.029 28 21.247 28 15.543 28 8.075 22.168 2 15 2z" class="bdcls-1"/></svg><svg preserveAspectRatio="xMidYMid" viewBox="0 0 48 48" id="quicon__calculator" xmlns="http://www.w3.org/2000/svg"><defs><style>.becls-1{fill:#1b1b1b;fill-rule:evenodd}</style></defs><path d="M45.467 48H2.533A2.536 2.536 0 010 45.467V2.533A2.536 2.536 0 012.533 0h42.934A2.536 2.536 0 0148 2.533v42.934A2.536 2.536 0 0145.467 48zM46 2.533A.54.54 0 0045.467 2H2.533A.54.54 0 002 2.533v42.934a.54.54 0 00.533.533h42.934a.54.54 0 00.533-.533V2.533zM38.045 37h-10a1 1 0 110-2h10a1 1 0 110 2zM38 31H28a1 1 0 110-2h10a1 1 0 110 2zm0-15H28a1 1 0 110-2h10a1 1 0 110 2zM20.707 38.707a.997.997 0 01-1.414 0L15 34.414l-4.293 4.293a.997.997 0 01-1.414 0 .999.999 0 010-1.414L13.586 33l-4.293-4.293a.999.999 0 111.414-1.414L15 31.586l4.293-4.293a.999.999 0 111.414 1.414L16.414 33l4.293 4.293a.999.999 0 010 1.414zM20 16h-4v4a1 1 0 11-2 0v-4h-4a1 1 0 110-2h4v-4a1 1 0 112 0v4h4a1 1 0 110 2z" class="becls-1"/></svg><svg preserveAspectRatio="xMidYMid" viewBox="0 0 48 48" id="quicon__calendar" xmlns="http://www.w3.org/2000/svg"><defs><style>.bfcls-1{fill:#1b1b1b;fill-rule:evenodd}</style></defs><path d="M45 48H3c-1.654 0-3-1.346-3-3V9c0-1.654 1.346-3 3-3h10V1a1 1 0 012 0v5h18V1a1 1 0 012 0v5h10c1.654 0 3 1.346 3 3v36c0 1.654-1.346 3-3 3zm1-39c0-.551-.449-1-1-1H35v3a1 1 0 01-2 0V8H15v3a1 1 0 01-2 0V8H3c-.551 0-1 .449-1 1v36c0 .551.449 1 1 1h42c.551 0 1-.449 1-1V9zm-7 27h-4a1 1 0 01-1-1v-4a1 1 0 011-1h4a1 1 0 011 1v4a1 1 0 01-1 1zm-1-4h-2v2h2v-2zm1-8h-4a1 1 0 01-1-1v-4a1 1 0 011-1h4a1 1 0 011 1v4a1 1 0 01-1 1zm-1-4h-2v2h2v-2zM26 36h-4a1 1 0 01-1-1v-4a1 1 0 011-1h4a1 1 0 011 1v4a1 1 0 01-1 1zm-1-4h-2v2h2v-2zm1-8h-4a1 1 0 01-1-1v-4a1 1 0 011-1h4a1 1 0 011 1v4a1 1 0 01-1 1zm-1-4h-2v2h2v-2zM13 36H9a1 1 0 01-1-1v-4a1 1 0 011-1h4a1 1 0 011 1v4a1 1 0 01-1 1zm-1-4h-2v2h2v-2zm1-8H9a1 1 0 01-1-1v-4a1 1 0 011-1h4a1 1 0 011 1v4a1 1 0 01-1 1zm-1-4h-2v2h2v-2z" class="bfcls-1"/></svg><svg preserveAspectRatio="xMidYMid" viewBox="0 0 48 48" id="quicon__check" xmlns="http://www.w3.org/2000/svg"><defs><style>.bgcls-1{fill:#1b1b1b;fill-rule:evenodd}</style></defs><path d="M24 48C10.767 48 0 37.233 0 24S10.767 0 24 0s24 10.767 24 24-10.767 24-24 24zm0-46C11.869 2 2 11.869 2 24s9.869 22 22 22 22-9.869 22-22S36.131 2 24 2zm-2.139 30.681a1 1 0 01-.71.319h-.022a.997.997 0 01-.702-.288l-9.129-9a1 1 0 111.404-1.424l8.396 8.277 14.17-15.246a1 1 0 011.464 1.362l-14.871 16z" class="bgcls-1"/></svg><svg preserveAspectRatio="xMidYMid" viewBox="0 0 48 48" id="quicon__clock" xmlns="http://www.w3.org/2000/svg"><defs><style>.bhcls-1{fill:#1b1b1b;fill-rule:evenodd}</style></defs><path d="M24 48C10.767 48 0 37.233 0 24S10.767 0 24 0s24 10.767 24 24-10.767 24-24 24zm0-46C11.869 2 2 11.869 2 24s9.869 22 22 22 22-9.869 22-22S36.131 2 24 2zm8.001 32a1 1 0 01-.749-.335l-8-9c-.034-.039-.047-.087-.075-.129-.038-.06-.08-.115-.106-.182-.026-.07-.032-.141-.043-.213C23.021 24.093 23 24.05 23 24V10a1 1 0 012 0v13.619l7.748 8.716A.999.999 0 0132.001 34z" class="bhcls-1"/></svg><svg preserveAspectRatio="xMidYMid" viewBox="0 0 48 48" id="quicon__compass" xmlns="http://www.w3.org/2000/svg"><defs><style>.bicls-1{fill:#1b1b1b;fill-rule:evenodd}</style></defs><path d="M23.999 48C10.766 48 0 37.234 0 24.001 0 10.767 10.766 0 23.999 0 37.233 0 48 10.767 48 24.001 48 37.234 37.233 48 23.999 48zm0-46C11.869 2 2 11.87 2 24.001 2 36.131 11.869 46 23.999 46 36.13 46 46 36.131 46 24.001 46 11.87 36.13 2 23.999 2zm4.963 26.475c-.1.216-.274.39-.489.489L13.417 35.91a.997.997 0 01-1.126-.202 1 1 0 01-.201-1.125l6.946-15.056c.1-.216.274-.39.489-.489l15.054-6.946a1.002 1.002 0 011.327 1.327l-6.944 15.056zm-13.919 4.482l11.29-5.208-6.081-6.082-5.209 11.29zm6.623-12.704l6.081 6.081 5.207-11.289-11.288 5.208z" class="bicls-1"/></svg><svg preserveAspectRatio="xMidYMid" viewBox="0 0 48 48" id="quicon__config" xmlns="http://www.w3.org/2000/svg"><defs><style>.bjcls-1{fill:#1b1b1b;fill-rule:evenodd}</style></defs><path d="M44 19.899V47a1 1 0 11-2 0V19.899A5.01 5.01 0 0138 15a5.01 5.01 0 014-4.899V1a1 1 0 112 0v9.101A5.01 5.01 0 0148 15a5.01 5.01 0 01-4 4.899zM43 12c-1.654 0-3 1.346-3 3s1.346 3 3 3 3-1.346 3-3-1.346-3-3-3zM25 37.899V47a1 1 0 11-2 0v-9.101A5.01 5.01 0 0119 33a5.01 5.01 0 014-4.899V1a1 1 0 112 0v27.101A5.01 5.01 0 0129 33a5.01 5.01 0 01-4 4.899zM24 30c-1.654 0-3 1.346-3 3s1.346 3 3 3 3-1.346 3-3-1.346-3-3-3zM6 28.899V47a1 1 0 11-2 0V28.899A5.01 5.01 0 010 24a5.01 5.01 0 014-4.899V1a1 1 0 112 0v18.101A5.01 5.01 0 0110 24a5.01 5.01 0 01-4 4.899zM5 21c-1.654 0-3 1.346-3 3s1.346 3 3 3 3-1.346 3-3-1.346-3-3-3z" class="bjcls-1"/></svg><svg preserveAspectRatio="xMidYMid" viewBox="0 0 47.625 48" id="quicon__controller" xmlns="http://www.w3.org/2000/svg"><defs><style>.bkcls-1{fill:#1b1b1b;fill-rule:evenodd}</style></defs><path d="M46.454 21.053L44.1 23.424c-1.374 1.387-3.978 2.34-5.911 2.174l-6.403-.555-6.846 6.898 1.374 4.952c.543 1.954-.147 4.608-1.57 6.042l-3.857 3.887A3.952 3.952 0 0118.059 48a3.956 3.956 0 01-2.829-1.178L1.166 32.647a4.062 4.062 0 010-5.703L26.733 1.178A3.958 3.958 0 0129.562 0c1.072 0 2.076.419 2.829 1.178l14.063 14.174a4.017 4.017 0 011.168 2.85 4.021 4.021 0 01-1.168 2.851zm-1.403-4.287L30.987 2.592c-.758-.765-2.095-.763-2.851 0L2.569 28.358a2.045 2.045 0 00.001 2.874l14.064 14.176c.756.764 2.094.764 2.85 0l3.857-3.888c.915-.921 1.411-2.832 1.062-4.088l-1.482-5.344a.986.986 0 01-.086-.509.974.974 0 01.512-.86l7.096-7.151a.963.963 0 01.932-.56c.027-.001.052-.002.079-.001l6.905.598c1.359.112 3.379-.627 4.338-1.595l2.354-2.371c.379-.382.587-.892.587-1.437a2.02 2.02 0 00-.587-1.436zM30.756 16h2.976v3h-2.976v-3zm0-5h2.976v3h-2.976v-3zm-4.961 5h2.976v3h-2.976v-3zm0-5h2.976v3h-2.976v-3zm-7.236 22.707a.987.987 0 01-1.403 0l-2.275-2.293-2.275 2.293a.987.987 0 01-1.403 0 1.004 1.004 0 010-1.414L13.478 30l-2.275-2.293a1.004 1.004 0 010-1.414.986.986 0 011.403 0l2.275 2.293 2.275-2.293a.986.986 0 011.403 0 1.004 1.004 0 010 1.414L16.284 30l2.275 2.293a1.004 1.004 0 010 1.414z" class="bkcls-1"/></svg><svg preserveAspectRatio="xMidYMid" viewBox="0 0 48 32" id="quicon__credit-card" xmlns="http://www.w3.org/2000/svg"><defs><style>.blcls-1{fill:#1b1b1b;fill-rule:evenodd}</style></defs><path d="M43.934 32H4.066C1.824 32 0 30.206 0 28V4c0-2.206 1.824-4 4.066-4h39.868C46.176 0 48 1.794 48 4v24c0 2.206-1.824 4-4.066 4zM46 4c0-1.102-.927-2-2.066-2H4.066C2.927 2 2 2.898 2 4v3h44V4zm0 7H2v17c0 1.103.927 2 2.066 2h39.868C45.073 30 46 29.103 46 28V11zm-6 15h-6a1 1 0 110-2h6a1 1 0 110 2z" class="blcls-1"/></svg><svg preserveAspectRatio="xMidYMid" viewBox="0 0 48 45" id="quicon__cup" xmlns="http://www.w3.org/2000/svg"><defs><style>.bmcls-1{fill:#1b1b1b;fill-rule:evenodd}</style></defs><path d="M39 14.333c-.069 0-.129-.026-.194-.039-1.06 6.86-6.771 12.193-13.806 12.66V38h5a1 1 0 110 2H18a1 1 0 110-2h5V26.954c-7.035-.467-12.746-5.8-13.806-12.66-.065.013-.125.039-.194.039-5.068 0-9-5.555-9-10.333a1 1 0 011-1h8V1a1 1 0 011-1h28a1 1 0 011 1v2h8a1 1 0 011 1c0 4.778-3.932 10.333-9 10.333zM9.011 11.944C9.01 11.925 9 11.908 9 11.889V5H2.069C2.549 8.533 5.46 12.333 9 12.333c.006 0 .011.003.017.003C9.015 12.223 9 12.114 9 12c0-.02.01-.036.011-.056zM37 11.889V2H11v9.889c0 .019-.01.036-.011.055.001.02.011.036.011.056 0 7.168 5.832 13 13 13s13-5.832 13-13c0-.02.01-.036.011-.056-.001-.019-.011-.036-.011-.055zM39 5v6.889c0 .019-.01.036-.011.055.001.02.011.036.011.056 0 .114-.015.223-.017.336.006 0 .011-.003.017-.003 3.54 0 6.451-3.8 6.931-7.333H39zM13 43h22a1 1 0 110 2H13a1 1 0 110-2z" class="bmcls-1"/></svg><svg preserveAspectRatio="xMidYMid" viewBox="0 0 47.876 48" id="quicon__diamond" xmlns="http://www.w3.org/2000/svg"><defs><style>.bncls-1{fill:#1b1b1b;fill-rule:evenodd}</style></defs><path d="M47.544 15.793l-22.798 31.79-.004.004a.989.989 0 01-.313.27.986.986 0 01-.493.143.987.987 0 01-.407-.098.983.983 0 01-.399-.315l-.005-.004L.325 15.79a.876.876 0 01-.33-.706l.002-.015c0-.007.004-.013.004-.02.004-.148.039-.289.095-.423.013-.032.005-.068.022-.099L7.765.639c.016-.028.05-.054.072-.081a.974.974 0 01.487-.385c.009-.003.019 0 .029-.003.206-.1.422-.17.585-.17h30c.163 0 .379.07.584.17.008.003.016.001.024.003.21.07.366.214.485.382.022.028.057.055.073.084l7.649 13.888c.017.03.009.065.022.097.056.134.091.276.096.425-.001.007.004.013.003.02l.003.015c0 .308-.13.548-.333.709zM44.94 16h-9.619l-8.355 25.065L44.94 16zM23.936 2.744L15.181 14h17.51L23.936 2.744zm0 41.104L33.219 16H14.651l9.285 27.848zm-3.031-2.784L12.549 16H2.932l17.973 25.064zM8.293 3.233L2.661 14h9.221L8.293 3.233zM9.984 2l3.601 10.802L21.988 2H9.984zm15.9 0l8.401 10.801L37.886 2H25.884zm13.695 1.226L35.988 14h9.223L39.579 3.226z" class="bncls-1"/></svg><svg preserveAspectRatio="xMidYMid" viewBox="0 0 48 48" id="quicon__directions" xmlns="http://www.w3.org/2000/svg"><defs><style>.bocls-1{fill:#1b1b1b;fill-rule:evenodd}</style></defs><path d="M47.641 10.769l-6 4.999c-.048.04-.104.06-.156.089-.042.024-.078.052-.123.07a.986.986 0 01-.361.073H25v4h11.99c.155 0 .309.036.448.105.338.17.562.526.562.905v9.98c0 .266-.11.53-.298.717a1 1 0 01-.707.293H25v15a1 1 0 11-2 0V32H7h-.001a.986.986 0 01-.361-.073c-.045-.018-.081-.046-.123-.07-.052-.029-.108-.049-.156-.089l-6-5a1.002 1.002 0 010-1.537l6-5c.037-.03.082-.04.121-.065.06-.037.116-.074.183-.098.067-.024.133-.031.202-.041.046-.006.087-.027.135-.027h16v-4H11.01c-.553 0-1.01-.457-1.01-1.01V5.01c0-.553.457-1.01 1.01-1.01H23V1a1 1 0 112 0v3h16c.048 0 .089.021.135.027.069.01.135.017.202.041s.124.061.183.099c.039.024.084.034.121.064l6 5a1.005 1.005 0 010 1.538zM7.363 22l-4.8 4 4.8 4H36v-8H7.363zM40.637 6H12v8h28.637l4.801-4-4.801-4z" class="bocls-1"/></svg><svg preserveAspectRatio="xMidYMid" viewBox="0 0 44 47" id="quicon__dislike" xmlns="http://www.w3.org/2000/svg"><defs><style>.bpcls-1{fill:#1b1b1b;fill-rule:evenodd}</style></defs><path d="M20.975 46.999c-.1 0-.204-.006-.307-.022-1.698-.254-5.648-1.636-5.648-8.962 0-3.277.913-7.054 1.453-9.003H6.954c-3.654 0-5.924-1.737-5.924-4.533 0-1.416.512-2.427 1.198-3.126-1.033-.556-2.229-1.692-2.229-3.971 0-1.947.943-3.138 2.18-3.778-.661-.707-1.149-1.724-1.149-3.142 0-2.144 1.116-3.388 2.518-3.994-.313-.509-.519-1.169-.519-2.008C3.029.69 6.058 0 12.022 0h8.994c3.359 0 5.76.908 7.879 1.708 1.79.676 3.334 1.259 5.215 1.259 2.97 0 5.905.034 5.905.034a.99.99 0 01.455.117c.362.19 3.531 2.091 3.531 9.887 0 7.59-2.039 11.336-2.126 11.492a1 1 0 01-.67.493c-.073.014-7.313 1.55-11.488 5.73-3.947 3.951-6.34 10.205-6.663 14.34a2.102 2.102 0 01-2.079 1.939zM4.826 15.001c-1.056 0-2.828.309-2.828 2.381 0 1.093.387 1.802 1.218 2.23.735.379 1.57.397 1.73.397.528 0 1.005.41 1.039.938.032.528-.31.989-.834 1.054-.348.05-2.122.406-2.122 2.478 0 2.285 2.745 2.532 3.925 2.532H17.81a1.002 1.002 0 01.951 1.307c-.017.055-1.742 5.46-1.742 9.697 0 4.122 1.401 6.603 3.945 6.983l.011.001c.034 0 .081-.036.086-.094.341-4.363 2.753-11.105 7.243-15.6 3.989-3.994 10.205-5.728 12.005-6.163.467-1.076 1.693-4.438 1.693-10.137 0-5.587-1.791-7.55-2.32-8.007-.827-.007-3.189-.03-5.572-.03-2.245 0-4.03-.674-5.921-1.388-2.054-.777-4.179-1.579-7.173-1.579h-8.994c-6.995 0-6.995 1.139-6.995 2.459 0 1.381 1 1.536 1.114 1.549a1 1 0 01.882 1.076c-.044.538-.47.964-1.046.917h-.004c-.928 0-2.944.243-2.944 2.46 0 2.281 2.026 2.541 2.112 2.55.54.062.931.544.882 1.087a.984.984 0 01-1.067.904l-.13-.002z" class="bpcls-1"/></svg><svg preserveAspectRatio="xMidYMid" viewBox="0 0 36 47.938" id="quicon__document" xmlns="http://www.w3.org/2000/svg"><defs><style>.bqcls-1{fill:#1b1b1b;fill-rule:evenodd}</style></defs><path d="M36 13.993c0 .035-.016.064-.02.098v31.824a2.026 2.026 0 01-2.024 2.024H2.036a2.039 2.039 0 01-2.037-2.035V2.05C-.001.927.913.015 2.036.015h19.952c.045 0 .083.02.127.025a.822.822 0 01.129.027c.171.046.33.119.451.241l12.884 12.87c.031.022.047.061.076.086.029.027.051.058.077.089.155.175.268.387.268.64zM2 1.938l-.002 43.966L34 45.938v-31H22c-.552 0-1.012-.394-1.012-.945V1.938H2zm20.987 1.485v9.571h9.581l-9.581-9.571z" class="bqcls-1"/></svg><svg preserveAspectRatio="xMidYMid" viewBox="0 0 48 48" id="quicon__documents" xmlns="http://www.w3.org/2000/svg"><defs><style>.brcls-1{fill:#1b1b1b;fill-rule:evenodd}</style></defs><path d="M47.981 13.151v26.861a2 2 0 01-1.999 1.997h-9.996a.999.999 0 110-1.997h9.996V14H35c-.552 0-1.014-.394-1.014-.946V2H18c0 .552-.454 1.07-1.007 1.07a1 1 0 01-1-.999v-.499C15.993.704 16.841 0 18 0h17c.322 0 .591.187.77.444l11.81 11.795c.032.023.047.061.076.087.029.027.051.058.077.088.154.176.268.388.268.64 0 .034-.017.063-.02.097zM35.986 3.483v8.573h8.582l-8.582-8.573zM19.052 6.077c.092.006.18.024.267.054.032.011.063.019.093.033a.972.972 0 01.281.189l.007.006L31.586 18.23c.032.022.048.061.076.087.029.027.051.057.077.087.154.176.268.389.268.641 0 .034-.016.063-.02.096v26.862c0 1.1-.897 1.997-1.999 1.997H1.999A2.001 2.001 0 010 46.003V8.062a2 2 0 011.999-1.997h16.993c.022 0 .039.011.06.012zm.94 3.397v8.572h8.582l-8.582-8.572zm-1.999 9.571V8H2l-.001 38.003h27.989V20H19c-.552 0-1.007-.403-1.007-.955z" class="brcls-1"/></svg><svg preserveAspectRatio="xMidYMid" viewBox="0 0 32 48" id="quicon__droplet" xmlns="http://www.w3.org/2000/svg"><defs><style>.bscls-1{fill:#1b1b1b;fill-rule:evenodd}</style></defs><path d="M16 48C7.178 48 0 40.512 0 31.307 0 19.372 14.6 1.142 15.222.372A.998.998 0 0115.999 0H16a1 1 0 01.776.37C17.398 1.136 32 19.268 32 31.307 32 40.512 24.822 48 16 48zm.002-45.376C12.956 6.602 2 21.589 2 31.307 2 39.408 8.28 46 16 46s14-6.592 14-14.693c0-9.808-10.949-24.72-13.998-28.683z" class="bscls-1"/></svg><svg preserveAspectRatio="xMidYMid" viewBox="0 0 48 48" id="quicon__emoticon" xmlns="http://www.w3.org/2000/svg"><defs><style>.btcls-1{fill:#1b1b1b;fill-rule:evenodd}</style></defs><path d="M24 48C10.767 48 0 37.233 0 24S10.767 0 24 0s24 10.767 24 24-10.767 24-24 24zm0-46C11.869 2 2 11.869 2 24s9.869 22 22 22 22-9.869 22-22S36.131 2 24 2zm0 37c-5.44 0-10.384-3.284-12.902-8.57a.997.997 0 01.472-1.332.996.996 0 011.332.472C15.086 34.153 19.339 37 24 37c4.683 0 8.935-2.846 11.096-7.427a1 1 0 111.808.854C34.409 35.715 29.465 39 24 39zm8-16c-1.654 0-3-1.346-3-3s1.346-3 3-3 3 1.346 3 3-1.346 3-3 3zm0-4a1 1 0 100 2 1 1 0 000-2zm-16 4c-1.654 0-3-1.346-3-3s1.346-3 3-3 3 1.346 3 3-1.346 3-3 3zm0-4a1 1 0 100 2 1 1 0 000-2z" class="btcls-1"/></svg><svg preserveAspectRatio="xMidYMid" viewBox="0 0 27.75 47.875" id="quicon__energy" xmlns="http://www.w3.org/2000/svg"><defs><style>.bucls-1{fill:#1b1b1b;fill-rule:evenodd}</style></defs><path d="M27.376 21.803L10.471 47.175a.99.99 0 01-1.078.687.986.986 0 01-.837-.874c-.007-.031-.002-.063-.006-.096-.001-.053-.017-.103-.009-.157l.008-.054a.89.89 0 01.019-.136l2.611-18.397c-.003 0-.007-.071-.03-.096-.032-.035-.032-.177-.274-.177h-9c-.778 0-1.398-.261-1.697-.85-.302-.599-.196-1.343.286-1.991L18.485.409a1.007 1.007 0 011.4-.219.981.981 0 01.392.872c.002.062.018.122.008.186l-2.758 17.481c-.015.096-.005.145 0 .154.011.013.15-.008.348-.008h8c.775 0 1.369.4 1.681.97.316.577.251 1.291-.18 1.958zm-9.501-.928c-.752 0-1.451-.204-1.875-.7-.399-.467-.56-1.092-.452-1.76l2.149-13.623L1.875 25.875h9c.761 0 1.299.344 1.743.821.409.439.601 1.016.552 1.665l-2.02 14.247 14.725-21.733h-8z" class="bucls-1"/></svg><svg preserveAspectRatio="xMidYMid" viewBox="0 0 48 32" id="quicon__envelope" xmlns="http://www.w3.org/2000/svg"><defs><style>.bvcls-1{fill:#1b1b1b;fill-rule:evenodd}</style></defs><path d="M43.934 32H4.066C1.824 32 0 30.206 0 28V4c0-2.206 1.824-4 4.066-4h39.868C46.176 0 48 1.794 48 4v24c0 2.206-1.824 4-4.066 4zM2 28c0 1.103.927 2 2.066 2h39.868C45.073 30 46 29.103 46 28V4c0-.166-.027-.326-.067-.48L24.651 21.76a1.001 1.001 0 01-1.302 0L2.067 3.52C2.027 3.674 2 3.834 2 4v24zM4.066 2c-.206 0-.401.038-.589.093L24 19.683l20.523-17.59A2.085 2.085 0 0043.934 2H4.066z" class="bvcls-1"/></svg><svg preserveAspectRatio="xMidYMid" viewBox="0 0 48 34" id="quicon__eye" xmlns="http://www.w3.org/2000/svg"><defs><style>.bwcls-1{fill:#1b1b1b;fill-rule:evenodd}</style></defs><path d="M24 34C7.481 34 0 20.959 0 17 0 13.041 7.481 0 24 0s24 13.041 24 17c0 3.959-7.481 17-24 17zm0-32C8.822 2 2 13.924 2 17c0 3.076 6.822 15 22 15s22-11.924 22-15c0-3.076-6.822-15-22-15zm0 24c-4.963 0-9-4.037-9-9s4.037-9 9-9 9 4.037 9 9-4.037 9-9 9zm0-16c-3.859 0-7 3.141-7 7s3.141 7 7 7 7-3.141 7-7-3.141-7-7-7z" class="bwcls-1"/></svg><svg preserveAspectRatio="xMidYMid" viewBox="0 0 47.906 48" id="quicon__female" xmlns="http://www.w3.org/2000/svg"><defs><style>.bxcls-1{fill:#1b1b1b;fill-rule:evenodd}</style></defs><path d="M28.944 38c-4.869 0-9.301-1.864-12.663-4.898L9.896 39.5l6.779 6.793A1 1 0 0115.97 48a.995.995 0 01-.706-.293l-6.78-6.793-6.779 6.793a.997.997 0 01-1.412 0 1 1 0 010-1.414l6.78-6.793-6.78-6.793a1 1 0 010-1.414.996.996 0 011.412 0l6.779 6.793 6.386-6.398C11.842 28.32 9.981 23.879 9.981 19c0-10.477 8.507-19 18.963-19 10.457 0 18.963 8.523 18.963 19s-8.506 19-18.963 19zm0-36c-9.355 0-16.966 7.626-16.966 17 0 9.374 7.611 17 16.966 17 9.356 0 16.967-7.626 16.967-17 0-9.374-7.611-17-16.967-17z" class="bxcls-1"/></svg><svg preserveAspectRatio="xMidYMid" viewBox="0 0 48 48" id="quicon__female-user" xmlns="http://www.w3.org/2000/svg"><defs><style>.bycls-1{fill:#1b1b1b;fill-rule:evenodd}</style></defs><path d="M45.467 48H2.533A2.536 2.536 0 010 45.467v-3.066a1 1 0 01.521-.877l15.519-8.466c.277-.151.516-.328.69-.481a2.393 2.393 0 00-.523-.135L6.86 31.126a1.001 1.001 0 01-.441-1.804c4.071-2.907 5.41-14.822 5.582-19.168.001-.021.013-.038.016-.059.002-.025-.007-.048-.002-.072C13.021 4.215 18.063 0 24 0c5.937 0 10.979 4.215 11.985 10.023.005.024-.004.047-.002.072.003.02.015.038.016.059.172 4.346 1.511 16.261 5.582 19.168a1.001 1.001 0 01-.441 1.804l-9.349 1.316c-.198.028-.377.08-.523.135.174.154.413.33.689.482l15.522 8.465a1 1 0 01.521.877v3.066A2.536 2.536 0 0145.467 48zM46 42.995l-15.001-8.181C30.664 34.631 29 33.659 29 32.436c0-1.11 1.301-1.801 2.51-1.974l7.365-1.037c-4.193-5.425-4.823-17.991-4.87-19.104C33.147 5.497 28.948 2 24 2s-9.147 3.497-10.005 8.321c-.047 1.113-.677 13.679-4.87 19.104l7.363 1.037c1.211.173 2.512.864 2.512 1.974 0 1.224-1.668 2.195-2.003 2.378L2 42.995v2.472a.54.54 0 00.533.534h42.934a.54.54 0 00.533-.534v-2.472z" class="bycls-1"/></svg><svg preserveAspectRatio="xMidYMid" viewBox="0 0 38 47.938" id="quicon__fire" xmlns="http://www.w3.org/2000/svg"><defs><style>.bzcls-1{fill:#1b1b1b;fill-rule:evenodd}</style></defs><path d="M19 47.939c-10.477 0-19-8.651-19-19.284 0-6.024 3.019-10.99 3.148-11.199a1 1 0 011.79.179c.018.046 1.676 4.371 5.93 6.712-.249-5.063.187-19.604 12.783-24.28a1 1 0 011.313 1.201c-.034.126-3.19 11.882 2.3 16.92.478-2.364 1.776-6.602 5.155-9.01a1 1 0 011.562.619c.62 3.133 1.351 5.22 1.996 7.063C37.063 19.959 38 22.635 38 28.655c0 10.633-8.523 19.284-19 19.284zM3.981 20.201C3.143 22.045 2 25.192 2 28.655c0 9.531 7.626 17.286 17 17.286 9.374 0 17-7.755 17-17.286 0-5.68-.843-8.088-1.911-11.136-.546-1.559-1.151-3.29-1.709-5.661-2.931 3.12-3.379 8.144-3.383 8.201a.996.996 0 01-.541.806.996.996 0 01-.971-.032c-6.721-4.03-5.693-13.898-4.89-18.133-4.733 2.375-7.795 6.733-9.116 12.983-1.127 5.332-.495 10.102-.489 10.15a.998.998 0 01-.368.917 1.004 1.004 0 01-.978.153c-4.108-1.559-6.49-4.683-7.663-6.702z" class="bzcls-1"/></svg><svg preserveAspectRatio="xMidYMid" viewBox="0 0 41.812 48" id="quicon__flag" xmlns="http://www.w3.org/2000/svg"><defs><style>.cacls-1{fill:#1b1b1b;fill-rule:evenodd}</style></defs><path d="M41.794 22.586c-.001.082-.027.16-.048.239a.983.983 0 01-.253.468l-.002.002c-3.732 3.621-7.611 4.814-11.45 4.814-3.944 0-7.844-1.26-11.498-2.44-6.376-2.061-11.896-3.831-16.637.507V47c0 .553-.368 1-.918 1a.998.998 0 01-.996-1V4.106c0-.392.23-.722.556-.886C6.142-1.922 12.753.2 19.151 2.268c7.004 2.26 14.245 4.601 20.958-1.91.006-.005.013-.007.019-.012A.844.844 0 0140.8.043c.55 0 .996.447.996 1v21.535l-.002.008zM18.542 4.171C12.164 2.112 6.645.342 1.906 4.679v18.948c5.289-3.705 11.358-1.764 17.246.138 6.93 2.239 14.098 4.543 20.754-1.729V3.174c-3.239 2.545-6.568 3.438-9.866 3.438-3.944 0-7.844-1.26-11.498-2.441z" class="cacls-1"/></svg><svg preserveAspectRatio="xMidYMid" viewBox="0 0 48 48" id="quicon__follow" xmlns="http://www.w3.org/2000/svg"><defs><style>.cbcls-1{fill:#1b1b1b;fill-rule:evenodd}</style></defs><path d="M46.994 42h-5.015v5a1.002 1.002 0 01-2.005 0v-5h-5.012a1.002 1.002 0 01-1.003-1c0-.552.449-1 1.003-1h5.012v-5a1.001 1.001 0 012.005 0v5h5.015c.554 0 1.003.448 1.003 1s-.449 1-1.003 1zm-11.659-7.928a.999.999 0 01-.374 1.929c-.123 0-.25-.024-.372-.073l-5.016-2.004c-.015-.006-.024-.019-.039-.026-.062-.028-.114-.07-.169-.11-.055-.04-.11-.076-.154-.125-.011-.012-.027-.018-.038-.031-.029-.035-.039-.078-.063-.117-.037-.06-.074-.117-.098-.183-.022-.061-.03-.121-.04-.184-.01-.064-.02-.125-.018-.19.003-.07.02-.134.037-.202.011-.044.007-.089.025-.132.006-.016.02-.026.027-.041.027-.06.068-.11.107-.163.041-.057.078-.113.129-.159.012-.011.017-.026.03-.036C34.886 27.639 35 19.083 35 19v-9c-.86-4.819-6.459-7.958-10.984-8l-.084.004c-4.541 0-10.16 3.373-11.024 8.222l-.005 9.048c0 .082.074 8.37 5.652 12.954.051.042.079.098.12.146.04.048.089.085.12.142l.004.011c.043.08.061.168.081.256.009.04.031.077.035.117.006.062-.011.124-.017.186-.005.065 0 .131-.018.194-.011.039-.04.072-.056.109-.036.082-.069.166-.127.237-.002.003-.002.007-.005.01-.02.024-.05.033-.072.055-.066.067-.13.136-.217.184L2.008 42.921v2.523c0 .302.245.556.535.556h29.411c.554 0 1.003.448 1.003 1s-.449 1-1.003 1H2.543a2.55 2.55 0 01-2.54-2.556v-3.112a1 1 0 01.517-.875l15.695-8.66C10.967 27.506 11 19.355 11 19v-9l-.083-.023C11.906 4.045 18.376.049 23.839.004L23.932 0c5.481 0 12.019 4.007 13.016 9.971l.014.164.005 9.134c.001.351-.061 8.124-5.181 13.385l3.549 1.418z" class="cbcls-1"/></svg><svg preserveAspectRatio="xMidYMid" viewBox="0 0 47.875 48" id="quicon__following" xmlns="http://www.w3.org/2000/svg"><defs><style>.cccls-1{fill:#1b1b1b;fill-rule:evenodd}</style></defs><path d="M47.675 36.588l-8 11a1 1 0 01-.731.409l-.078.003a1 1 0 01-.707-.293l-6-6a.999.999 0 111.414-1.414l5.172 5.172 7.313-10.053a1 1 0 111.617 1.176zm-16.066-3.837l4.705 2.355a1 1 0 11-.896 1.788l-6.002-3.005-.005-.004c-.061-.031-.109-.084-.163-.128-.051-.04-.109-.072-.149-.121l-.007-.005c-.028-.034-.036-.075-.059-.111-.046-.073-.094-.143-.12-.225-.019-.062-.017-.125-.024-.189-.008-.064-.024-.126-.019-.191.007-.085.038-.165.067-.245.014-.041.013-.083.033-.123l.005-.006c.029-.057.079-.102.119-.153.043-.054.077-.116.129-.159l.005-.005C34.79 27.638 35 19.083 35 19v-9c-.857-4.819-6.538-7.958-11.05-8l-.084.004C19.337 2.004 13.861 5.15 13 10v9c0 .082-.06 8.643 5.503 13.228.049.041.076.095.115.142.042.049.092.088.125.146.002.004.001.008.003.011.042.078.059.164.079.25.01.042.033.081.037.124.006.057-.011.114-.015.172-.006.07-.001.14-.02.207-.011.036-.038.067-.052.102-.036.085-.072.171-.131.244-.002.003-.002.007-.005.01-.019.023-.047.031-.068.052-.067.069-.132.138-.22.187L2 42.921v2.522c0 .302.244.557.533.557h27.333a1 1 0 010 2H2.533C1.136 48 0 46.853 0 45.443v-3.111a1 1 0 01.516-.875l15.654-8.66C10.939 27.506 11 19.355 11 19v-9l-.115-.023c.987-5.932 7.44-9.928 12.888-9.973L23.866 0c5.466 0 11.986 4.006 12.98 9.97L37 10v9c0 .353-.175 8.459-5.391 13.751z" class="cccls-1"/></svg><svg preserveAspectRatio="xMidYMid" viewBox="0 0 65 48" id="quicon__friends" xmlns="http://www.w3.org/2000/svg"><defs><style>.cdcls-1{fill:#1b1b1b;fill-rule:evenodd}</style></defs><path d="M62.467 48H19.533C18.137 48 17 46.854 17 45.445v-3.111c0-.365.199-.701.519-.876l15.778-8.663C28.059 27.533 28 19.627 28 19.273l.009-9.135c0-.055.005-.109.014-.163.984-5.931 7.436-9.926 12.884-9.971A.964.964 0 0141 0c5.467 0 11.987 4.007 12.98 9.973a.978.978 0 01.014.163L54 19.269c0 .354-.059 8.26-5.298 13.524l15.779 8.663c.32.175.519.511.519.876v3.113C65 46.854 63.863 48 62.467 48zM63 42.926l-16.483-9.051c-.061-.034-.102-.086-.153-.129-.045-.038-.098-.064-.137-.112l-.005-.008a.989.989 0 01-.144-.27c-.01-.026-.031-.049-.039-.075-.022-.076-.019-.156-.023-.235-.002-.049-.018-.097-.013-.146.004-.039.026-.077.035-.116.019-.088.037-.176.08-.257.002-.003.001-.007.003-.01.035-.063.088-.105.133-.157.037-.044.062-.095.108-.133C51.943 27.625 52 19.353 52 19.27l-.006-9.048c-.856-4.819-6.396-8.18-10.91-8.222a.775.775 0 01-.084.004c-4.529 0-10.132 3.372-10.991 8.22L30 19.274c0 .082.075 8.37 5.638 12.954.048.04.074.093.113.14.043.05.095.09.128.151l.003.009c.044.082.062.172.082.262.008.038.029.074.033.112.005.048-.011.096-.013.144-.004.08-.001.16-.023.237-.007.024-.026.044-.035.068a.99.99 0 01-.149.277l-.004.008c-.016.019-.04.026-.057.044a.941.941 0 01-.233.196L19 42.926v2.519c0 .301.244.555.533.555h42.934a.545.545 0 00.533-.555v-2.519zM27.657 2.647C26.452 2.228 25.25 2.01 24.084 2a.775.775 0 01-.084.004c-4.529 0-10.132 3.372-10.991 8.22L13 19.274c0 .082.075 8.37 5.638 12.954.048.039.074.093.112.138.043.051.095.092.129.153.002.003.001.006.003.01.044.081.061.17.081.259.009.039.03.075.034.114.005.047-.011.094-.013.141-.004.081 0 .163-.023.24-.007.024-.026.044-.035.068a.99.99 0 01-.149.277l-.004.008c-.016.019-.04.026-.057.044a.963.963 0 01-.233.196L2 42.926v2.519c0 .301.244.555.533.555H13a1 1 0 110 2H2.533C1.137 48 0 46.854 0 45.445v-3.111c0-.365.199-.701.519-.876l15.778-8.663C11.059 27.533 11 19.627 11 19.273l.009-9.135c0-.055.005-.109.014-.163.984-5.931 7.436-9.926 12.884-9.971A.95.95 0 0124 0c1.417 0 2.868.255 4.315.759a1 1 0 11-.658 1.888z" class="cdcls-1"/></svg><svg preserveAspectRatio="xMidYMid" viewBox="0 0 40 47.906" id="quicon__ghost" xmlns="http://www.w3.org/2000/svg"><defs><style>.cecls-1{fill:#1b1b1b;fill-rule:evenodd}</style></defs><path d="M39.348 47.756a.975.975 0 01-.456.129.988.988 0 01-.63-.25c-.008-.007-.019-.012-.027-.02-.026-.023-.058-.032-.082-.058l-5.562-6.167-5.562 6.167c-.012.013-.029.018-.041.03s-.017.028-.029.04c-.044.04-.098.059-.146.09-.046.028-.087.063-.136.083-.071.031-.145.042-.22.055-.047.008-.092.024-.14.025-.008.001-.017.005-.025.005-.044 0-.085-.021-.128-.027-.08-.01-.158-.018-.234-.048-.053-.021-.098-.058-.148-.089-.053-.032-.111-.051-.158-.094-.013-.012-.018-.029-.031-.041-.012-.012-.028-.017-.04-.029l-5.561-6.167-5.562 6.167c-.012.013-.029.018-.041.03s-.017.028-.029.04c-.039.035-.086.049-.128.076-.056.037-.108.076-.168.101-.061.025-.124.034-.188.046-.062.012-.121.027-.184.027-.062 0-.121-.015-.183-.027-.064-.012-.127-.021-.188-.046-.06-.025-.112-.064-.168-.1-.042-.028-.09-.042-.128-.077-.013-.012-.017-.028-.029-.04-.013-.012-.03-.017-.041-.03L7.393 41.39 1.83 47.557c-.018.02-.044.027-.064.046-.021.019-.046.033-.069.05a.988.988 0 01-.605.232.982.982 0 01-.466-.134C.275 47.634 0 47.388 0 47V19C0 8.362 9.022-.006 19.992-.006 30.961-.006 40 8.362 40 19v28c0 .393-.289.642-.652.756zM38 19c0-9.537-8.136-17.011-18.008-17.011C10.119 1.989 2 9.463 2 19v25.394l4.655-5.16a.991.991 0 011.476 0l5.561 6.166 5.562-6.166c.378-.419 1.098-.419 1.476 0l5.561 6.166 5.562-6.166c.378-.419 1.098-.419 1.475 0L38 44.412V19zm-10.051 4.939a2.992 2.992 0 01-2.984-2.993 2.992 2.992 0 012.984-2.993 2.992 2.992 0 012.984 2.993 2.991 2.991 0 01-2.984 2.993zm-15.914 0a2.992 2.992 0 01-2.985-2.993 2.993 2.993 0 012.985-2.993 2.992 2.992 0 012.983 2.993 2.99 2.99 0 01-2.983 2.993z" class="cecls-1"/></svg><svg preserveAspectRatio="xMidYMid" viewBox="0 0 48 48" id="quicon__globe-1" xmlns="http://www.w3.org/2000/svg"><defs><style>.cfcls-1{fill:#1b1b1b;fill-rule:evenodd}</style></defs><path d="M24 48C10.767 48 0 37.233 0 24S10.767 0 24 0s24 10.767 24 24-10.767 24-24 24zm19.029-12.994A21.816 21.816 0 0045.966 25h-9.009c-.104 3.501-.721 6.862-1.836 10H43c.01 0 .019.005.029.006zM25 23h9.954c-.113-3.52-.786-6.883-1.982-10H25v10zm16.707 14H34.32c-1.347 3.089-3.16 5.942-5.461 8.441 5.238-1.187 9.76-4.255 12.848-8.441zM25 45.949c.178-.012.357-.014.535-.027 2.804-2.54 4.998-5.57 6.585-8.922H25v8.949zM32.972 35c1.196-3.118 1.869-6.48 1.982-10H25v10h7.972zM23 25h-9.954c.113 3.52.785 6.883 1.981 10H23V25zm0 20.949V37h-7.122c1.586 3.352 3.779 6.382 6.582 8.922.179.012.361.015.54.027zm-3.855-.507c-2.266-2.481-4.073-5.346-5.424-8.442H6.293c3.089 4.187 7.612 7.256 12.852 8.442zM5 35h7.916a32.719 32.719 0 01-1.872-10h-9.01a21.816 21.816 0 002.937 10.006C4.981 35.005 4.99 35 5 35zm-.029-22.006A21.816 21.816 0 002.034 23h9.009c.104-3.501.722-6.862 1.837-10H5c-.01 0-.019-.005-.029-.006zM6.293 11h7.388c1.348-3.089 3.162-5.943 5.464-8.442C13.905 3.744 9.382 6.813 6.293 11zM23 2.051c-.176.011-.355.014-.531.027-2.804 2.54-5 5.571-6.587 8.922H23V2.051zM15.03 13c-1.198 3.118-1.871 6.481-1.984 10H23V13h-7.97zM25 2.051V11h7.12c-1.587-3.352-3.782-6.382-6.586-8.922-.177-.013-.357-.015-.534-.027zm3.858.508C31.16 5.058 32.973 7.911 34.32 11h7.387c-3.088-4.186-7.61-7.255-12.849-8.441zM43 13h-7.879c1.115 3.138 1.732 6.499 1.836 10h9.009a21.816 21.816 0 00-2.937-10.006c-.01.001-.019.006-.029.006z" class="cfcls-1"/></svg><svg preserveAspectRatio="xMidYMid" viewBox="0 0 38 47.469" id="quicon__globe-2" xmlns="http://www.w3.org/2000/svg"><defs><style>.cgcls-1{fill:#1b1b1b;fill-rule:evenodd}</style></defs><path d="M17 41.412v4.061h5a.998.998 0 110 1.994H10a.998.998 0 110-1.994h5v-4.017c-3.557-.119-7.087-1.169-10.504-3.152a.997.997 0 01-.361-1.364 1 1 0 011.367-.36c3.281 1.904 6.659 2.877 10.042 2.9a.979.979 0 01.456-.123c.146 0 .282.034.407.09C27.274 39.054 36 30.139 36 19.208c0-7.192-3.792-13.686-10.144-17.372a.996.996 0 01-.361-1.363c.278-.476.89-.637 1.367-.36C33.836 4.159 38 11.298 38 19.208c0 11.832-9.307 21.51-21 22.204zm15.001-21.866c0 8.797-7.178 15.955-16 15.955C7.178 35.501 0 28.343 0 19.546S7.178 3.591 16.001 3.591c8.822 0 16 7.158 16 15.955zm-16-13.961C8.281 5.585 2 11.848 2 19.546s6.281 13.96 14.001 13.96 14-6.262 14-13.96c0-7.698-6.28-13.961-14-13.961z" class="cgcls-1"/></svg><svg preserveAspectRatio="xMidYMid" viewBox="0 0 48 39.938" id="quicon__graduation-cap" xmlns="http://www.w3.org/2000/svg"><defs><style>.chcls-1{fill:#1b1b1b;fill-rule:evenodd}</style></defs><path d="M48 30.948a3.002 3.002 0 01-3 2.997c-1.654 0-3-1.344-3-2.997 0-1.3.839-2.399 2-2.812V15.719l-7.041 4.155c.015.068.041.13.041.202v15.982a.995.995 0 01-.955.99c-1.448.729-6.303 2.89-13.045 2.89-6.743 0-11.598-2.161-13.045-2.891A.994.994 0 019 36.058V20.076c0-.072.026-.135.041-.202l-8.55-5.046a1 1 0 010-1.721L22.492.121a1.003 1.003 0 011.018 0l22 12.986.001.001c.402.06.489.34.489.83v.026l.001.003-.001.004v14.165c1.161.413 2 1.512 2 2.812zm-13 4.384V21.031l-11.49 6.782a.997.997 0 01-1.018 0L11 21.03v14.303c1.452.701 5.95 2.607 12 2.607 6.049 0 10.548-1.906 12-2.608zM23.001 2.142L2.966 13.967l20.035 11.826 20.034-11.826L23.001 2.142zM45.01 29.951a3.25 3.25 0 01-.14.078c-.007.005-.051-.025-.078-.038-.448.099-.792.48-.792.957a1 1 0 002 0 1 1 0 00-.99-.997z" class="chcls-1"/></svg><svg preserveAspectRatio="xMidYMid" viewBox="0 0 48 29" id="quicon__graph" xmlns="http://www.w3.org/2000/svg"><defs><style>.cicls-1{fill:#1b1b1b;fill-rule:evenodd}</style></defs><path d="M44.5 7a3.454 3.454 0 01-1.755-.49l-9.867 9.123c.072.279.122.566.122.867 0 1.93-1.57 3.5-3.5 3.5S26 18.43 26 16.5c0-.063.015-.121.019-.183l-6.974-3.43A3.481 3.481 0 0116.5 14c-.586 0-1.13-.159-1.616-.414-.012.016-.015.036-.028.051L6.505 23.736c.307.52.495 1.118.495 1.764C7 27.43 5.43 29 3.5 29S0 27.43 0 25.5 1.57 22 3.5 22c.554 0 1.072.141 1.538.372l8.277-10.009c.047-.056.108-.088.162-.131A3.46 3.46 0 0113 10.5C13 8.57 14.57 7 16.5 7S20 8.57 20 10.5c0 .205-.027.403-.06.598l6.759 3.324A3.489 3.489 0 0129.5 13c.89 0 1.695.344 2.313.894l9.565-8.844A3.458 3.458 0 0141 3.5C41 1.57 42.57 0 44.5 0S48 1.57 48 3.5 46.43 7 44.5 7zm-41 17c-.827 0-1.5.673-1.5 1.5S2.673 27 3.5 27 5 26.327 5 25.5 4.327 24 3.5 24zm13-15c-.827 0-1.5.673-1.5 1.5s.673 1.5 1.5 1.5 1.5-.673 1.5-1.5S17.327 9 16.5 9zm13 6c-.827 0-1.5.673-1.5 1.5s.673 1.5 1.5 1.5 1.5-.673 1.5-1.5-.673-1.5-1.5-1.5zm15-13c-.827 0-1.5.673-1.5 1.5S43.673 5 44.5 5 46 4.327 46 3.5 45.327 2 44.5 2z" class="cicls-1"/></svg><svg preserveAspectRatio="xMidYMid" viewBox="0 0 47.812 48" id="quicon__handbag" xmlns="http://www.w3.org/2000/svg"><defs><style>.cjcls-1{fill:#1b1b1b;fill-rule:evenodd}</style></defs><path d="M47.363 47.173c-.409.526-1.053.827-1.767.827H2.315a2.35 2.35 0 01-1.776-.792 2.378 2.378 0 01-.546-1.882l3.961-26.43c.332-2.162 2.371-3.917 4.545-3.917h4.427V11c0-6.065 4.918-11 10.963-11 6.044 0 10.962 4.934 10.963 10.999l.002 3.98h4.558c2.19 0 4.193 1.773 4.465 3.954l3.875 26.416a2.155 2.155 0 01-.389 1.824zM13.929 23c-.553 0-1.003.45-1.003 1.002a1 1 0 001.003.996c.546 0 .99-.447.99-.996a.997.997 0 00-.99-1.002zm18.929-12c0-4.962-4.023-9-8.969-9s-8.97 4.038-8.97 9v3.979H32.86L32.858 11zm1.003 12c-.553 0-1.003.45-1.003 1.002a1 1 0 001.003.996.995.995 0 00.991-.996.998.998 0 00-.991-1.002zm8.041-3.798c-.152-1.215-1.291-2.223-2.49-2.223h-4.557l.002 4.206a2.993 2.993 0 01-.996 5.813 3 3 0 01-2.996-2.996c0-1.303.838-2.404 1.999-2.818l-.002-4.205H14.919v4.204a2.994 2.994 0 01-.99 5.815 3 3 0 01-2.996-2.996c0-1.301.836-2.401 1.993-2.816v-4.207H8.499c-1.211 0-2.39 1.016-2.574 2.218L1.966 45.609a.358.358 0 00.074.283c.062.07.157.108.275.108h43.281c.111 0 .173-.03.195-.057.022-.028.036-.097.009-.206l-3.898-26.535z" class="cjcls-1"/></svg><svg preserveAspectRatio="xMidYMid" viewBox="0 0 47.624 42" id="quicon__heart" xmlns="http://www.w3.org/2000/svg"><defs><style>.ckcls-1{fill:#1b1b1b;fill-rule:evenodd}</style></defs><path d="M44.005 21.366l-.002.003-17.439 19.359c-.73.819-1.715 1.272-2.771 1.272h-.002c-1.055 0-2.039-.453-2.771-1.275L3.586 21.369l-.002-.003c-4.797-4.893-4.788-12.818.033-17.694C5.961 1.304 9.075 0 12.387 0c3.313 0 6.427 1.304 8.769 3.672.004.003.005.008.008.011.004.004.009.005.013.009l2.617 2.805 2.619-2.805.012-.008c.004-.004.005-.009.008-.012C28.776 1.304 31.89 0 35.202 0c3.313 0 6.427 1.304 8.769 3.672 4.818 4.876 4.827 12.801.034 17.694zM42.566 5.084A10.292 10.292 0 0035.202 2a10.294 10.294 0 00-7.36 3.08l-3.327 3.562c-.007.007-.017.009-.024.017-.008.008-.01.018-.018.026-.06.056-.131.088-.2.127-.037.021-.068.052-.107.068a.987.987 0 01-.373.076.978.978 0 01-.372-.076c-.04-.016-.072-.048-.11-.069-.068-.039-.139-.07-.198-.126-.008-.008-.01-.018-.018-.026-.007-.008-.017-.01-.024-.017l-3.328-3.566A10.293 10.293 0 0012.387 2a10.296 10.296 0 00-7.365 3.084C.96 9.193.96 15.881 5.023 19.991c.006.006.008.015.014.021.005.006.012.008.017.013l17.438 19.36c.355.397.815.615 1.3.615h.001c.486 0 .947-.217 1.299-.612l17.443-19.363c.005-.005.012-.007.017-.013.006-.006.008-.015.014-.021 4.06-4.11 4.06-10.798 0-14.907z" class="ckcls-1"/></svg><svg preserveAspectRatio="xMidYMid" viewBox="0 0 48 48" id="quicon__help" xmlns="http://www.w3.org/2000/svg"><defs><style>.clcls-1{fill:#1b1b1b;fill-rule:evenodd}</style></defs><path d="M24 48C10.767 48 0 37.233 0 24c0-1.84.228-3.625.622-5.347.006-.018.006-.038.014-.055C2.693 9.703 9.697 2.697 18.592.637c.05-.022.107-.027.162-.041A23.937 23.937 0 0124 0c1.805 0 3.558.217 5.25.596.053.014.108.019.157.041 8.895 2.059 15.9 9.065 17.957 17.961.008.017.008.037.014.055C47.772 20.375 48 22.16 48 24c0 13.233-10.767 24-24 24zm21.149-18.008H34.381A12.069 12.069 0 0130 34.376v10.771a22.058 22.058 0 0015.149-15.155zM24 14c-5.514 0-10 4.486-10 10 0 3.849 2.19 7.192 5.386 8.863l.011.005a9.928 9.928 0 009.217-.005C31.81 31.192 34 27.849 34 24c0-5.514-4.486-10-10-10zm0 32a21.97 21.97 0 004-.382V35.3c-1.253.445-2.596.7-4 .7s-2.746-.255-3.999-.7v10.318C21.3 45.858 22.633 46 24 46zm-5.999-.853v-10.77a12.073 12.073 0 01-4.381-4.383l-10.769-.001a22.058 22.058 0 0015.15 15.154zM2 24c0 1.365.142 2.696.381 3.993l10.317.001A11.915 11.915 0 0112 24c0-1.406.256-2.751.702-4.006H2.383A21.947 21.947 0 002 24zm.854-6.006h10.773A12.078 12.078 0 0118 13.624V2.853A22.059 22.059 0 002.854 17.994zM24 2a21.97 21.97 0 00-4 .382V12.7c1.253-.445 2.596-.7 4-.7s2.746.255 3.999.7V2.382A21.967 21.967 0 0024 2zm5.999.853v10.77a12.076 12.076 0 014.374 4.371h10.773A22.06 22.06 0 0029.999 2.853zm15.618 17.141H35.298c.446 1.255.702 2.6.702 4.006 0 1.401-.254 2.741-.697 3.992h10.316C45.858 26.695 46 25.365 46 24c0-1.37-.142-2.705-.383-4.006z" class="clcls-1"/></svg><svg preserveAspectRatio="xMidYMid" viewBox="0 0 47.812 47.875" id="quicon__home" xmlns="http://www.w3.org/2000/svg"><defs><style>.cmcls-1{fill:#1b1b1b;fill-rule:evenodd}</style></defs><path d="M47.459 27.663a.992.992 0 01-1.406-.086l-2.24-2.54v20.844a1.995 1.995 0 01-1.991 1.996h-9.955a1.995 1.995 0 01-1.99-1.996V30.908l-12.971-.033v15c0 1.101-.863 2.002-1.961 2.002H5.986c-1.098 0-2.08-.901-2.08-2.002V25.138l-2.151 2.439a.996.996 0 11-1.491-1.323L23.158.301c.379-.428 1.113-.428 1.492 0l18.852 21.371c.016.015.028.032.043.048l4 4.534a1.001 1.001 0 01-.086 1.409zM23.904 2.469L5.906 22.871v23.004l9.039.006V30.908c0-1.101.893-1.996 1.991-1.996h12.941c1.098 0 1.99.895 1.99 1.996v14.973l10.039-.006v-23L23.904 2.469z" class="cmcls-1"/></svg><svg preserveAspectRatio="xMidYMid" viewBox="0 0 32 48" id="quicon__hourglass" xmlns="http://www.w3.org/2000/svg"><defs><style>.cncls-1{fill:#1b1b1b;fill-rule:evenodd}</style></defs><path d="M31 2h-3v11.572c0 .117-.03.224-.066.328-.467 5.459-5.04 8.629-8.451 10.097 3.42 1.462 7.986 4.642 8.451 10.106a.987.987 0 01.066.327V46h3a1 1 0 110 2H1a1 1 0 110-2h3V34.43c0-.116.03-.224.066-.327.465-5.464 5.031-8.644 8.451-10.106-3.411-1.468-7.984-4.638-8.451-10.097A.993.993 0 014 13.572V2H1a1 1 0 110-2h30a1 1 0 110 2zM6 35v11h20V35c0-7.428-9.031-9.967-10.005-10C15.031 25.033 6 27.572 6 35zM26 2H6v11c0 7.428 9.031 9.967 10.005 10C16.969 22.967 26 20.428 26 13V2z" class="cncls-1"/></svg><svg preserveAspectRatio="xMidYMid" viewBox="0 0 41.906 48" id="quicon__key" xmlns="http://www.w3.org/2000/svg"><defs><style>.cocls-1{fill:#1b1b1b;fill-rule:evenodd}</style></defs><path d="M28.935 26a12.89 12.89 0 01-8.461-3.168L8.384 34.989l5.292 5.304A1 1 0 0112.971 42a.995.995 0 01-.706-.293l-5.29-5.302-4.568 4.594 5.282 5.294A1 1 0 016.984 48a.995.995 0 01-.706-.293L.293 41.708H.292v-.001c-.05-.05-.075-.112-.112-.168-.035-.055-.083-.103-.107-.162a.992.992 0 01.141-.966c.028-.038.042-.083.077-.117l18.775-18.879A12.95 12.95 0 0115.964 13c0-7.168 5.819-13 12.971-13s12.971 5.832 12.971 13-5.819 13-12.971 13zm0-24c-6.052 0-10.976 4.935-10.976 11s4.924 11 10.976 11c6.052 0 10.976-4.935 10.976-11S34.987 2 28.935 2z" class="cocls-1"/></svg><svg preserveAspectRatio="xMidYMid" viewBox="0 0 47.844 45.938" id="quicon__layers" xmlns="http://www.w3.org/2000/svg"><defs><style>.cpcls-1{fill:#1b1b1b;fill-rule:evenodd}</style></defs><path d="M47.322 13.85L24.394 25.841a1 1 0 01-.922 0L.549 13.85a.999.999 0 01.054-1.798L23.476.087a1 1 0 01.922 0l22.924 11.991a1 1 0 010 1.772zM23.937 2.1L3.166 12.965l20.767 10.863 20.772-10.864L23.937 2.1zM.557 21.607l2.99-1.538a.995.995 0 011.342.432 1.001 1.001 0 01-.432 1.346l-1.307.672L23.937 33.81l20.788-11.29-1.308-.673a.998.998 0 11.911-1.778l2.964 1.527a.999.999 0 01.045 1.778L24.412 35.825a.976.976 0 01-.475.121.979.979 0 01-.475-.121L.537 23.374a1 1 0 01.02-1.767zm0 9.992l2.99-1.538a.995.995 0 011.342.433 1 1 0 01-.432 1.345l-1.307.673 20.787 11.291 20.788-11.29-1.308-.674a1 1 0 01-.432-1.345.997.997 0 011.343-.433l2.964 1.528a.999.999 0 01.045 1.777L24.412 45.818a.987.987 0 01-.95 0L.537 33.366a1 1 0 01.02-1.767z" class="cpcls-1"/></svg><svg preserveAspectRatio="xMidYMid" viewBox="0 0 44 46.844" id="quicon__like" xmlns="http://www.w3.org/2000/svg"><defs><style>.cqcls-1{fill:#1b1b1b;fill-rule:evenodd}</style></defs><path d="M31.978 46.839h-8.994c-3.359 0-5.76-.904-7.879-1.702-1.789-.674-3.334-1.255-5.215-1.255-2.969 0-5.905-.034-5.905-.034a1.001 1.001 0 01-.455-.116c-.362-.19-3.531-2.086-3.531-9.855 0-7.566 2.039-11.298 2.126-11.454a.995.995 0 01.671-.49c.073-.015 7.312-1.546 11.487-5.711 3.947-3.939 6.34-10.172 6.663-14.293.092-1.185 1.171-2.096 2.386-1.911 1.697.253 5.648 1.628 5.648 8.932 0 3.266-.44 6.952-.98 8.894h9c3.654 0 5.97 1.811 5.97 4.598 0 1.412-.513 2.42-1.199 3.117 1.293.707 2.23 1.999 2.23 3.956 0 1.94-.943 3.128-2.178 3.765.66.705 1.147 1.719 1.147 3.132 0 2.137-1.116 3.376-2.518 3.981.313.508.52 1.165.52 2.001 0 3.758-3.03 4.445-8.994 4.445zM4.323 41.858c.832.007 3.188.03 5.567.03 2.245 0 4.031.672 5.921 1.383 2.054.775 4.178 1.574 7.173 1.574h8.994c6.995 0 6.995-1.135 6.995-2.451 0-1.377-.999-1.53-1.114-1.544a.998.998 0 01.164-1.987h.004c.928 0 2.945-.241 2.945-2.451 0-2.274-2.026-2.532-2.113-2.542a.996.996 0 01.185-1.984l.13.002c1.056 0 2.828-.308 2.828-2.373 0-2.363-2.062-2.618-2.948-2.618-.528 0-1.005-.409-1.038-.935-.033-.526.309-.986.833-1.051.348-.049 2.123-.404 2.123-2.469 0-2.278-2.792-2.598-3.972-2.598H26c-.319 0-.429-.079-.617-.336a1 1 0 01-.144-.893c.018-.054 1.742-5.443 1.742-9.665 0-4.11-1.4-6.581-3.944-6.959-.037-.005-.094.034-.098.092-.341 4.349-2.753 11.069-7.243 15.549-3.989 3.979-10.206 5.709-12.005 6.142-.468 1.073-1.693 4.423-1.693 10.103 0 5.558 1.772 7.507 2.325 7.981z" class="cqcls-1"/></svg><svg preserveAspectRatio="xMidYMid" viewBox="0 0 40 48" id="quicon__lock" xmlns="http://www.w3.org/2000/svg"><defs><style>.crcls-1{fill:#1b1b1b;fill-rule:evenodd}</style></defs><path d="M37 48H3c-1.654 0-3-1.346-3-3V19c0-1.654 1.346-3 3-3h5v-4C8 5.383 13.383 0 20 0s12 5.383 12 12v4h5c1.654 0 3 1.346 3 3v26c0 1.654-1.346 3-3 3zM20 2c-5.514 0-10 4.486-10 10v4h20v-4c0-5.514-4.486-10-10-10zm18 17a1 1 0 00-1-1H3a1 1 0 00-1 1v26a1 1 0 001 1h34a1 1 0 001-1V19zM21 31.816V37a1 1 0 11-2 0v-5.184A2.996 2.996 0 0117 29c0-1.654 1.346-3 3-3s3 1.346 3 3a2.996 2.996 0 01-2 2.816zM20 28a1 1 0 100 2 1 1 0 000-2z" class="crcls-1"/></svg><svg preserveAspectRatio="xMidYMid" viewBox="0 0 47.844 47.938" id="quicon__magic-wand" xmlns="http://www.w3.org/2000/svg"><defs><style>.cscls-1{fill:#1b1b1b;fill-rule:evenodd}</style></defs><path d="M47.729 23.831c-.174.322-.457.107-.823.107h-10l-6.231 7.847a.995.995 0 01-1.727-.349l-2.536-8.553L1.697 47.646a.993.993 0 01-1.41 0 1 1 0 010-1.413L24.96 21.514l-8.307-2.538a1 1 0 01-.335-1.733l7.604-6.14V.991a.998.998 0 011.55-.831l8.583 5.733 9.521-2.862a.999.999 0 011.242 1.239l-2.86 9.741 5.73 8.797c.2.308.216.7.041 1.023zm-7.693-9.114a1 1 0 01-.121-.828l2.471-8.414-8.207 2.466a.996.996 0 01-.84-.125l-7.423-4.959v8.724a.997.997 0 01-.371.777l-6.51 5.257 7.774 2.375a.976.976 0 01.809.273.976.976 0 01.265.562l2.442 8.237 5.186-6.34c.19-.232.096-.784.395-.784h9l-4.87-7.221z" class="cscls-1"/></svg><svg preserveAspectRatio="xMidYMid" viewBox="0 0 47.906 48" id="quicon__magnifier" xmlns="http://www.w3.org/2000/svg"><defs><style>.ctcls-1{fill:#1b1b1b;fill-rule:evenodd}</style></defs><path d="M47.61 47.707a.997.997 0 01-1.412 0L29.92 31.395C26.74 34.248 22.556 36 17.961 36 8.055 36-.004 27.925-.004 18S8.055 0 17.961 0c9.907 0 17.966 8.075 17.966 18 0 4.603-1.748 8.795-4.595 11.981L47.61 46.293a1 1 0 010 1.414zM17.961 2C9.155 2 1.992 9.178 1.992 18s7.163 16 15.969 16 15.97-7.178 15.97-16-7.164-16-15.97-16z" class="ctcls-1"/></svg><svg preserveAspectRatio="xMidYMid" viewBox="0 0 47.906 47.906" id="quicon__male" xmlns="http://www.w3.org/2000/svg"><defs><style>.cucls-1{fill:#1b1b1b;fill-rule:evenodd}</style></defs><path d="M47.89.943c.001.019.011.035.011.055v11.976a.998.998 0 01-.998.998c-.552 0-.903-.514-.903-1.066V3.303L32.991 16.235c3.052 3.367 4.929 7.816 4.929 12.708 0 10.455-8.506 18.962-18.962 18.962S-.005 39.398-.005 28.943c0-10.456 8.507-18.963 18.963-18.963 4.847 0 9.262 1.844 12.618 4.848L44.574 1.906H35c-.552 0-1.072-.356-1.072-.908 0-.551.447-.998.998-.998h11.977a1.01 1.01 0 01.707.294v.001c.006.005.008.013.013.019.084.088.154.19.201.304.043.104.059.214.066.325zM18.958 11.976c-9.356 0-16.967 7.611-16.967 16.967 0 9.355 7.611 16.966 16.967 16.966 9.355 0 16.966-7.611 16.966-16.966 0-9.356-7.611-16.967-16.966-16.967z" class="cucls-1"/></svg><svg preserveAspectRatio="xMidYMid" viewBox="0 0 48 48" id="quicon__male-user" xmlns="http://www.w3.org/2000/svg"><defs><style>.cvcls-1{fill:#1b1b1b;fill-rule:evenodd}</style></defs><path d="M45.467 48H2.533C1.137 48 0 46.854 0 45.445v-3.111c0-.365.199-.701.519-.877l15.778-8.662C11.059 27.533 11 19.627 11 19.272l.009-9.134c0-.055.005-.109.013-.163.985-5.931 7.437-9.926 12.885-9.971C23.937.002 23.969 0 24 0c5.467 0 11.987 4.007 12.981 9.973.008.053.013.108.013.163L37 19.269c0 .354-.059 8.26-5.298 13.524l15.779 8.663c.32.175.519.511.519.876v3.113C48 46.854 46.863 48 45.467 48zM46 42.926l-16.463-9.041a.008.008 0 01-.005-.002l-.015-.009c-.055-.029-.09-.077-.137-.115-.051-.041-.11-.072-.153-.125l-.005-.008a1.003 1.003 0 01-.144-.27c-.01-.026-.031-.049-.039-.075-.022-.077-.019-.158-.023-.238-.002-.048-.018-.095-.013-.143.004-.04.026-.077.035-.117.019-.087.037-.176.08-.256.002-.003.001-.007.003-.01.036-.066.092-.112.14-.166.036-.041.058-.089.101-.124C34.943 27.625 35 19.354 35 19.271l-.006-9.049c-.856-4.819-6.396-8.18-10.91-8.221a1.158 1.158 0 01-.084.003c-4.529 0-10.132 3.372-10.991 8.22L13 19.274c0 .082.075 8.37 5.638 12.954.047.039.073.092.111.137.044.051.096.092.13.154.002.003.001.006.003.01.044.081.062.17.081.259.009.039.03.075.034.114.004.047-.011.094-.013.141-.004.081 0 .162-.023.24-.007.023-.026.044-.035.067a.957.957 0 01-.149.278l-.004.008c-.015.019-.039.026-.056.043a.976.976 0 01-.234.198L2 42.926v2.519c0 .301.244.555.533.555h42.934a.545.545 0 00.533-.555v-2.519z" class="cvcls-1"/></svg><svg preserveAspectRatio="xMidYMid" viewBox="0 0 48 47.875" id="quicon__map" xmlns="http://www.w3.org/2000/svg"><defs><style>.cwcls-1{fill:#1b1b1b;fill-rule:evenodd}</style></defs><path d="M47.56 47.702a1 1 0 01-.931.1l-14.64-5.84-15.638 5.848c-.009.004-.019.002-.028.005a.997.997 0 01-.321.059H16h-.001-.001a1.003 1.003 0 01-.336-.065c-.011-.004-.023-.002-.034-.007l-15-5.984A.998.998 0 010 40.892V.998A1 1 0 011.372.072l14.64 5.84L31.648.064c.051-.019.102-.014.152-.024l.017-.002c.061-.012.118-.037.183-.037s.122.025.184.037a.207.207 0 01.022.004c.055.011.111.008.165.03l15 5.984c.38.152.629.518.629.926v39.894a.996.996 0 01-.44.826zM15 7.658L2 2.471v37.746l13 5.186V7.658zm2 37.779L31 40.2V2.437L17 7.673v37.764zm29-37.78L33 2.471v37.746l13 5.186V7.657z" class="cwcls-1"/></svg><svg preserveAspectRatio="xMidYMid" viewBox="0 0 48 46.906" id="quicon__opened-book" xmlns="http://www.w3.org/2000/svg"><defs><style>.cxcls-1{fill:#1b1b1b;fill-rule:evenodd}</style></defs><path d="M45.692 43.525l-21.538 3.364a1.108 1.108 0 01-.15.012h-.007a1.11 1.11 0 01-.151-.012L2.349 43.532C1.014 43.267 0 42.027 0 40.702V2.261C0 1.557.294.911.808.49 1.322.068 2.015-.092 2.7.044L24 3.766 45.325.039a2.25 2.25 0 011.867.451c.514.421.808 1.067.808 1.771v38.441c0 1.325-1.014 2.565-2.308 2.823zM23 5.627L2.331 2.015c-.125-.025-.207-.014-.256.026-.048.04-.075.118-.075.22v38.441c0 .368.339.784.698.855L23 44.727v-39.1zm23-3.366c0-.102-.027-.18-.075-.22-.049-.04-.13-.051-.231-.03L25 5.627v39.1l20.343-3.177c.318-.064.657-.48.657-.848V2.261zm-5.804 31.584l-10 2.006a.999.999 0 01-1.176-.787 1.002 1.002 0 01.784-1.18l10-2.005a1.003 1.003 0 01.392 1.966zm0-10.028l-10 2.006a.999.999 0 01-1.176-.787 1.002 1.002 0 01.784-1.18l10-2.005a1.003 1.003 0 01.392 1.966zm0-11.03l-10 2.005a1 1 0 01-1.176-.786 1.001 1.001 0 01.784-1.18l10-2.006a1.003 1.003 0 01.392 1.967zm-32-1.967l10 2.006a1.003 1.003 0 01-.392 1.966l-10-2.005a1.003 1.003 0 01.392-1.967zm0 11.031l10 2.005a1.003 1.003 0 01-.392 1.967l-10-2.006a1.003 1.003 0 01.392-1.966zm0 10.028l10 2.005a1.003 1.003 0 01-.392 1.967l-10-2.006a1.003 1.003 0 01.392-1.966z" class="cxcls-1"/></svg><svg preserveAspectRatio="xMidYMid" viewBox="0 0 47.875 47.906" id="quicon__paper-plane" xmlns="http://www.w3.org/2000/svg"><defs><style>.cycls-1{fill:#1b1b1b;fill-rule:evenodd}</style></defs><path d="M47.582.295a.989.989 0 01.196.294c.015.033.024.066.035.1a.96.96 0 01.047.243c.003.037.006.071.005.108a.993.993 0 01-.055.283c-.007.019-.008.04-.016.059l-.003.012-19.823 45.91a.994.994 0 01-.915.602.998.998 0 01-.845-.466l-9.915-15.749c-.019-.016-.042-.022-.059-.039-.013-.013-.017-.031-.029-.044L.468 22.075a1 1 0 01.115-1.767L46.473.085c.005-.003.011-.003.016-.005.022-.009.045-.01.067-.018a.992.992 0 01.278-.054c.034-.002.067.001.101.003.087.006.169.022.251.049.033.011.064.019.095.033.108.048.21.11.297.196l.002.003h.001l.001.003zM26.887 44.774L43.89 5.396 18.247 31.049l8.64 13.725zM16.825 29.649l25.58-25.59L3.142 21.361l13.683 8.288z" class="cycls-1"/></svg><svg preserveAspectRatio="xMidYMid" viewBox="0 0 48 40" id="quicon__photo" xmlns="http://www.w3.org/2000/svg"><defs><style>.czcls-1{fill:#1b1b1b;fill-rule:evenodd}</style></defs><path d="M43.934 40H4.066C1.824 40 0 38.206 0 36V10c0-2.206 1.824-4 4.066-4h7.316L14.105.553C14.275.214 14.621 0 15 0h18c.379 0 .725.214.895.553L36.618 6h7.316C46.176 6 48 7.794 48 10v26c0 2.206-1.824 4-4.066 4zM46 10c0-1.103-.927-2-2.066-2H36c-.379 0-.725-.214-.895-.553L32.382 2H15.618l-2.723 5.447c-.17.339-.516.553-.895.553H4.066C2.927 8 2 8.897 2 10v26c0 1.103.927 2 2.066 2h39.868C45.073 38 46 37.103 46 36V10zM24 32.033c-5.514 0-10-4.486-10-10s4.486-10 10-10 10 4.486 10 10-4.486 10-10 10zm0-18c-4.411 0-8 3.589-8 8s3.589 8 8 8 8-3.589 8-8-3.589-8-8-8z" class="czcls-1"/></svg><svg preserveAspectRatio="xMidYMid" viewBox="0 0 48 38" id="quicon__picture" xmlns="http://www.w3.org/2000/svg"><defs><style>.dacls-1{fill:#1b1b1b;fill-rule:evenodd}</style></defs><path d="M44.907 38H3.09C1.443 38 0 36.654 0 35V3c0-1.654 1.443-3 3.09-3h41.817C46.554 0 48 1.346 48 3v32c0 1.654-1.446 3-3.093 3zM46 3c0-.551-.544-1-1.093-1H3.09C2.54 2 2 2.449 2 3v22.055l12.384-10.81a.992.992 0 011.358.048L27.079 25.68l7.274-5.48a.991.991 0 011.31.102L46 30.944V3zm0 30.808L34.848 22.327 27.582 27.8a.993.993 0 01-1.301-.093L14.99 16.366 2 27.705V35c0 .551.54 1 1.09 1h41.817c.549 0 1.093-.449 1.093-1v-1.192zM31.964 12.002A3 3 0 0134.954 9c1.646 0 2.983 1.347 2.983 3.002A2.993 2.993 0 0134.954 15a2.997 2.997 0 01-2.99-2.998zm3.982 0A.998.998 0 0034.954 11a1 1 0 000 2 .996.996 0 00.992-.998z" class="dacls-1"/></svg><svg preserveAspectRatio="xMidYMid" viewBox="0 0 48 48" id="quicon__pie-chart" xmlns="http://www.w3.org/2000/svg"><defs><style>.dbcls-1{fill:#1b1b1b;fill-rule:evenodd}</style></defs><path d="M26 48C13.869 48 4 38.131 4 26a1 1 0 012 0c0 11.028 8.972 20 20 20s20-8.972 20-20S37.028 6 26 6a1 1 0 010-2c12.131 0 22 9.869 22 22s-9.869 22-22 22zm-4.02-27.02a1 1 0 01-.999 1H1.142A.992.992 0 010 21V20.978C.011 9.422 9.423.011 20.98 0H21a1 1 0 01.98 1.198V20.98zm-2-18.953c-9.661.514-17.438 8.291-17.953 17.953H19.98V2.027z" class="dbcls-1"/></svg><svg preserveAspectRatio="xMidYMid" viewBox="0 0 47.876 47.531" id="quicon__plane" xmlns="http://www.w3.org/2000/svg"><defs><style>.dccls-1{fill:#1b1b1b;fill-rule:evenodd}</style></defs><path d="M44.62 11.044l-.009.007-.007.01-10.623 10.068 3.894 21.274a.982.982 0 01-.275.878l-3.991 3.963a.998.998 0 01-.92.267.99.99 0 01-.721-.625l-6.473-17.447-9.551 8.625v5.507a.988.988 0 01-.292.701l-2.993 2.972a1.004 1.004 0 01-.917.268.996.996 0 01-.723-.62l-2.785-7.377L.64 36.787a.987.987 0 01-.333-1.664l3.278-3.186a.998.998 0 01.672-.259h5.668l8.312-9.275L.626 15.762a.986.986 0 01-.352-1.627l3.99-3.963a.99.99 0 01.884-.274l21.419 3.867L36.704 3.214c4.682-4.65 9.027-3.212 10.081-2.165.571.566 1.153 1.946 1.077 3.633-.068 1.501-.684 3.823-3.242 6.362zm.749-8.599c-.432-.383-3.47-1.588-7.237 2.154L27.64 15.52a.984.984 0 01-.9.29L5.306 11.939l-2.53 2.515 17.512 6.603a.989.989 0 01.397 1.579l-9.558 10.686a.999.999 0 01-.75.338H4.644l-1.773 1.821 6.022 2.163c.428-.028.844.204 1.002.624l2.448 6.486 1.606-1.593v-5.535c0-.28.118-.546.326-.734l10.974-9.908a1 1 0 011.608.39l6.444 17.374 2.519-2.502-3.897-21.288a.983.983 0 01.292-.894L43.216 9.636c3.761-3.74 2.549-6.753 2.153-7.191z" class="dccls-1"/></svg><svg preserveAspectRatio="xMidYMid" viewBox="0 0 42 48" id="quicon__play" xmlns="http://www.w3.org/2000/svg"><defs><style>.ddcls-1{fill:#1b1b1b;fill-rule:evenodd}</style></defs><path d="M2.059 48C.847 48 0 47.032 0 45.648V2.321C0 .954.828 0 2.014 0c.447 0 .903.137 1.356.408l37.379 22.377c.8.482 1.251 1.198 1.241 1.97-.012.77-.486 1.474-1.299 1.931L3.371 47.627c-.437.247-.88.373-1.312.373zM2.033 2.001c.001.026-.034.126-.034.32v43.327c0 .198.039.309.063.352.033-.001.143-.012.329-.116l37.322-20.943c.199-.111.27-.212.28-.238-.017.019-.081-.087-.272-.202L2.343 2.125a.774.774 0 00-.31-.124z" class="ddcls-1"/></svg><svg preserveAspectRatio="xMidYMid" viewBox="0 0 47.656 48" id="quicon__plus" xmlns="http://www.w3.org/2000/svg"><defs><style>.decls-1{fill:#1b1b1b;fill-rule:evenodd}</style></defs><path d="M40.666 40.97C36.161 45.503 30.172 48 23.802 48c-6.371 0-12.36-2.497-16.864-7.03-9.297-9.357-9.297-24.583 0-33.941C11.442 2.496 17.431 0 23.802 0c6.37 0 12.359 2.496 16.864 7.029C45.172 11.562 47.653 17.59 47.653 24c0 6.411-2.481 12.437-6.987 16.97zM39.261 8.443C35.131 4.288 29.641 2 23.802 2c-5.84 0-11.33 2.288-15.459 6.443-8.522 8.578-8.522 22.536 0 31.113C12.472 43.711 17.962 46 23.802 46c5.839 0 11.329-2.289 15.459-6.444 4.13-4.155 6.405-9.68 6.405-15.556 0-5.876-2.275-11.401-6.405-15.557zM34.734 25h-9.937v10c0 .552-.445 1-.994 1a.997.997 0 01-.994-1V25h-9.937a.997.997 0 01-.994-1c0-.552.445-1 .994-1h9.937V13c0-.552.445-1 .994-1 .549 0 .994.448.994 1v10h9.937c.549 0 .994.448.994 1s-.445 1-.994 1z" class="decls-1"/></svg><svg preserveAspectRatio="xMidYMid" viewBox="0 0 36 48" id="quicon__pointer" xmlns="http://www.w3.org/2000/svg"><defs><style>.dfcls-1{fill:#1b1b1b;fill-rule:evenodd}</style></defs><path d="M18.645 47.764a.998.998 0 01-1.29 0C16.646 47.165 0 32.927 0 17.818 0 7.993 8.075 0 18 0s18 7.993 18 17.818c0 15.109-16.646 29.347-17.355 29.946zM18 2C9.178 2 2 9.096 2 17.818c0 12.571 12.932 25.061 16 27.846 3.066-2.787 16-15.287 16-27.846C34 9.096 26.822 2 18 2zm0 25c-4.963 0-9-4.037-9-9s4.037-9 9-9 9 4.037 9 9-4.037 9-9 9zm0-16c-3.859 0-7 3.141-7 7s3.141 7 7 7 7-3.141 7-7-3.141-7-7-7z" class="dfcls-1"/></svg><svg preserveAspectRatio="xMidYMid" viewBox="0 0 48 45" id="quicon__present" xmlns="http://www.w3.org/2000/svg"><defs><style>.dgcls-1{fill:#1b1b1b;fill-rule:evenodd}</style></defs><path d="M47 21.957h-2v20.551c0 1.836-1.122 2.49-2.172 2.49H6.105c-.632 0-2.105-.242-2.105-2.49V21.957H1c-.552 0-1-.449-1-1.002v-7.421C0 12.096 1.653 11 3 11h6.655C7.831 9.641 6.467 7.623 6.467 5.011c0-5.009 4.516-5.009 6-5.009 1.859 0 7.418 1.836 12.013 9.921C29.07 1.867 34.61.002 36.467.002c1.484 0 6 0 6 5.009 0 2.612-1.365 4.63-3.188 5.989H46c.479 0 2 .124 2 2.534v7.421c0 .553-.448 1.002-1 1.002zM25 42.995h17.828c.067 0 .103-.009.115-.012-.005-.01.057-.139.057-.475V21.957H25v21.038zm-19-.487c0 .278.031.421.052.486h.006l.047.001H23V21.957H6v20.551zM2.975 12.94c-.388 0-.938.404-.976.604L2 20h21v-7.059h-7.135a1 1 0 01-.398.085c-.349 0-.715-.034-1.087-.085L2.975 12.94zm9.492-10.934c-2.469 0-4 .502-4 3.005 0 3.77 3.979 5.769 6.541 5.989h7.78c-4.194-7.419-9.152-8.994-10.321-8.994zm28 3.005c0-2.503-1.531-3.005-4-3.005-1.169 0-6.128 1.575-10.321 8.994h7.779c2.562-.22 6.542-2.219 6.542-5.989zM46 13.534c0-.335-.042-.511-.071-.592H34.547c-.37.05-.734.084-1.08.084a.994.994 0 01-.397-.084L25 12.941V20h21v-6.466z" class="dgcls-1"/></svg><svg preserveAspectRatio="xMidYMid" viewBox="0 0 47.625 48" id="quicon__puzzle" xmlns="http://www.w3.org/2000/svg"><defs><style>.dhcls-1{fill:#1b1b1b;fill-rule:evenodd}</style></defs><path d="M40.984 17.482l4.413 4.217c1.625 1.638 1.625 4.273.019 5.892L26.062 46.792A4.082 4.082 0 0123.157 48a4.094 4.094 0 01-2.915-1.214L1.199 27.591a4.185 4.185 0 010-5.873l3.375-3.642c.838-.846 1.868-1.212 2.843-1.03.978.181 1.808.893 2.278 1.952.037.091 2.011 5 5.595 5 4.218 0 7.523-3.166 7.523-7.207 0-3.636-4.942-5.668-4.992-5.688-1.089-.491-1.795-1.328-1.976-2.314-.179-.984.184-2.02.997-2.84l3.37-3.704A4.097 4.097 0 0123.155 1c1.102 0 2.137.432 2.913 1.215l4.201 4.466C31.246 2.846 34.694 0 38.798 0c4.859 0 8.813 3.986 8.813 8.884a8.88 8.88 0 01-6.627 8.598zM38.798 2c-3.766 0-6.83 3.088-6.83 6.884 0 .006-.003.01-.003.016-.001.066-.025.128-.039.193-.014.064-.017.13-.042.188-.006.015-.02.027-.027.042a1.006 1.006 0 01-.194.278c-.003.002-.003.005-.006.008-.025.024-.058.033-.085.054a.975.975 0 01-.233.147c-.067.027-.137.031-.207.042-.053.009-.101.032-.156.032l-.015-.003c-.08-.001-.156-.027-.234-.048-.048-.012-.099-.013-.144-.032-.033-.014-.06-.044-.092-.063-.08-.046-.161-.092-.225-.159-.003-.003-.008-.004-.011-.008L24.646 3.61c-.766-.773-2.199-.791-3.001.018l-3.37 3.704c-.38.384-.539.762-.479 1.095.061.333.345.629.799.834.217.087 6.202 2.555 6.202 7.53 0 5.163-4.176 9.207-9.507 9.207-4.939 0-7.324-5.971-7.423-6.226-.185-.413-.479-.698-.809-.76-.33-.064-.707.099-1.058.453l-3.375 3.642c-.854.864-.854 2.231-.022 3.07l19.041 19.195a2.128 2.128 0 003.021-.001l19.354-19.2c.827-.833.827-2.2-.006-3.04l-5.898-5.635-.007-.011c-.063-.062-.106-.139-.151-.216-.021-.036-.053-.066-.07-.104-.016-.038-.015-.083-.027-.124-.024-.085-.05-.169-.051-.257-.001-.005-.003-.009-.003-.014 0-.05.021-.092.028-.14.011-.078.017-.155.046-.228.03-.076.079-.137.125-.202.027-.038.04-.083.073-.118l.011-.007c.058-.061.132-.101.203-.145.04-.024.073-.06.115-.078.034-.014.073-.013.109-.024.089-.027.177-.054.269-.055.005 0 .008-.003.013-.003 3.766 0 6.829-3.089 6.829-6.886C45.627 5.088 42.564 2 38.798 2z" class="dhcls-1"/></svg><svg preserveAspectRatio="xMidYMid" viewBox="0 0 47.625 48" id="quicon__rocket" xmlns="http://www.w3.org/2000/svg"><defs><style>.dicls-1{fill:#1b1b1b;fill-rule:evenodd}</style></defs><path d="M43.878 21.997c-6.465 6.419-11.662 9.111-17.101 11.823v7.046a1 1 0 01-.227.636l-5.028 6.133a.986.986 0 01-1.705-.321l-2.97-8.976-7.275-7.331-8.907-2.993a1 1 0 01-.662-.765 1.006 1.006 0 01.344-.955l6.085-5.065A.986.986 0 017.064 21h6.991c2.691-5.482 5.364-10.72 11.733-17.234C28.831.653 35.565 0 40.679 0c3.25 0 5.686.258 5.788.269a.993.993 0 01.881.888c.068.643 1.604 15.8-3.47 20.84zm1.573-19.811A61.75 61.75 0 0040.679 2C33.986 2 29.2 3.126 27.201 5.171c-6.36 6.504-8.925 11.735-11.64 17.272a.991.991 0 01-.889.557H7.421l-4.43 3.687 7.43 2.497c.147.049.28.132.388.242l7.607 7.665c.108.11.191.244.239.391l2.478 7.489 3.66-4.465v-7.307c0-.381.214-.728.552-.897 5.495-2.735 10.684-5.32 17.139-11.729 3.433-3.409 3.35-13.743 2.967-18.387zM32.731 21c-3.283 0-5.954-2.691-5.954-6 0-3.308 2.671-5.999 5.954-5.999s5.954 2.691 5.954 5.999c0 3.309-2.671 6-5.954 6zm0-9.999c-2.189 0-3.969 1.793-3.969 3.999 0 2.206 1.78 4 3.969 4s3.969-1.794 3.969-4-1.78-3.999-3.969-3.999zM8.523 35.032a.99.99 0 011.211.713.999.999 0 01-.707 1.22c-1.015.271-3.939 1.259-5.243 2.572-.948.956-1.522 4.116-1.738 6.452 2.564-.07 5.85-.502 6.747-1.404 1.267-1.278 1.959-4.466 2.118-5.586a.996.996 0 011.123-.847.999.999 0 01.842 1.13c-.068.479-.718 4.739-2.68 6.717C8.363 47.845 3.051 48 1.315 48l-.35-.002a.993.993 0 01-.978-1.051c.035-.69.397-6.81 2.394-8.824 1.953-1.967 5.973-3.046 6.142-3.091z" class="dicls-1"/></svg><svg preserveAspectRatio="xMidYMid" viewBox="0 0 48 48" id="quicon__settings" xmlns="http://www.w3.org/2000/svg"><defs><style>.djcls-1{fill:#1b1b1b;fill-rule:evenodd}</style></defs><path d="M47.15 27.912l-5.464.843a18.056 18.056 0 01-1.797 4.346l3.332 4.368a.998.998 0 01-.086 1.311l-4.229 4.257a.997.997 0 01-1.302.101l-4.457-3.279a18.207 18.207 0 01-4.363 1.815l-.722 5.436a1 1 0 01-.987.869L21.083 48h-.004a1 1 0 01-.988-.849l-.835-5.458c-1.511-.403-2.965-1-4.335-1.781l-4.389 3.312a1 1 0 01-1.307-.088l-4.261-4.228a1 1 0 01-.103-1.3l3.254-4.455a18.024 18.024 0 01-1.835-4.422l-5.38-.67a1 1 0 01-.877-.988l-.021-5.991a1 1 0 01.851-.993l5.453-.821a18.045 18.045 0 011.852-4.416l-3.37-4.311a1.001 1.001 0 01.079-1.321l4.23-4.258a1 1 0 011.315-.091l4.41 3.356a18.11 18.11 0 014.4-1.827l.71-5.511a.999.999 0 01.988-.872L26.921 0h.003a1 1 0 01.989.856l.804 5.534c1.502.4 2.947.993 4.313 1.768l4.439-3.381c.396-.3.954-.265 1.31.087l4.258 4.23a.999.999 0 01.093 1.31l-3.328 4.422a18.096 18.096 0 011.854 4.4l5.453.714c.496.065.868.488.87.989l.019 5.992a.999.999 0 01-.848.991zm-1.168-6.102l-5.259-.69a.996.996 0 01-.843-.765 16.123 16.123 0 00-2.128-5.047 1.002 1.002 0 01.044-1.141l3.212-4.269-3.021-3.002-4.283 3.262a1 1 0 01-1.131.055 16.194 16.194 0 00-4.968-2.037.999.999 0 01-.769-.832l-.778-5.342-4.255.013-.685 5.319a1.001 1.001 0 01-.77.848 16.217 16.217 0 00-5.058 2.097.995.995 0 01-1.139-.05L9.898 6.993l-2.991 3.011 3.253 4.161a1 1 0 01.055 1.154 16.131 16.131 0 00-2.128 5.064 1.001 1.001 0 01-.825.764l-5.257.791.015 4.247 5.191.646c.419.052.76.361.852.773.4 1.79 1.106 3.495 2.098 5.069a1 1 0 01-.039 1.123l-3.139 4.298 3.036 3.011 4.233-3.194a.995.995 0 011.13-.052 16.21 16.21 0 004.982 2.047 1 1 0 01.768.825l.806 5.266 4.257-.016.696-5.245a1 1 0 01.768-.842 16.193 16.193 0 005.01-2.083 1 1 0 011.125.042l4.302 3.163 3.007-3.028-3.214-4.214a.998.998 0 01-.053-1.136 16.104 16.104 0 002.064-4.991 1 1 0 01.823-.767l5.272-.814-.013-4.256zm-22.08 12.163c-5.514 0-10-4.487-10-10.001 0-5.514 4.486-10 10-10s9.999 4.486 9.999 10-4.485 10.001-9.999 10.001zm0-18.001c-4.411 0-8 3.589-8 8 0 4.412 3.589 8.001 8 8.001s7.999-3.589 7.999-8.001c0-4.411-3.588-8-7.999-8z" class="djcls-1"/></svg><svg preserveAspectRatio="xMidYMid" viewBox="0 0 40 48" id="quicon__shield" xmlns="http://www.w3.org/2000/svg"><defs><style>.dkcls-1{fill:#1b1b1b;fill-rule:evenodd}</style></defs><path d="M39.998 17.867c.002.361-.093 23.179-19.666 30.076-.005.002-.011.001-.017.003A.983.983 0 0120 48a.988.988 0 01-.315-.054c-.006-.002-.012-.001-.017-.003C.097 41.046 0 18.228.002 17.867V8c0-1.103.897-2 2-2h3.652c.008 0 .016.005.024.005.009 0 .016-.005.025-.005C15.36 6 18.963.682 19.112.455c.185-.281.501-.455.838-.455.34 0 .756.173.941.458C21.037.681 24.642 6 34.297 6c.01 0 .017.005.026.005.01 0 .017-.005.026-.005h3.649c1.103 0 2 .897 2 2v9.867zm-2 0V8h-3.649c-.009 0-.016-.005-.026-.005-.009 0-.016.005-.026.005C26.002 8 21.651 4.349 20 2.533 18.35 4.349 13.999 8 5.703 8c-.009 0-.016-.005-.025-.005-.008 0-.016.005-.024.005H2.002v9.867l-.001.004.001.004C2 18.09 2.074 39.344 20 45.927c17.958-6.593 18-27.837 17.998-28.052l.001-.004-.001-.004zm-12.291 11.84a1 1 0 01-1.414 0L20 25.414l-4.293 4.293a.997.997 0 01-1.413 0 .999.999 0 010-1.414L18.586 24l-4.292-4.293a.999.999 0 111.413-1.414L20 22.586l4.293-4.293a.999.999 0 111.414 1.414L21.414 24l4.293 4.293a1 1 0 010 1.414z" class="dkcls-1"/></svg><svg preserveAspectRatio="xMidYMid" viewBox="0 0 47.906 43.906" id="quicon__shuffle" xmlns="http://www.w3.org/2000/svg"><defs><style>.dlcls-1{fill:#1b1b1b;fill-rule:evenodd}</style></defs><path d="M47.611 7.689l-5.984 5.988a.994.994 0 01-.706.292.997.997 0 01-.705-1.703l4.357-4.36H38c-1.363 0-2.985.752-3.739 1.885L17.313 35.22a6.049 6.049 0 01-5.041 2.698H1.013a.998.998 0 110-1.996h11.259a4.054 4.054 0 003.38-1.809l8.254-12.384-8.447-11.984C14.695 8.638 13.335 7.906 12 7.906H1c-.551 0-1.004-.371-1.004-.922 0-.552.446-.998.997-.998H12.11c1.99 0 3.854.978 4.985 2.617l7.998 11.346 7.508-11.265a6.04 6.04 0 015.041-2.698h6.855l-4.283-4.284A.997.997 0 1141.625.291l5.984 5.986a.99.99 0 01.292.699l.002.008a.91.91 0 01-.285.694l-.007.011zm-18.05 19.326l4.702 7.101a4.05 4.05 0 003.379 1.806h6.855l-4.283-4.283a.997.997 0 111.411-1.411l5.984 5.985a1.011 1.011 0 01.293.701l.001.006-.002.008a.99.99 0 01-.292.699l-5.982 5.986a.995.995 0 01-1.411 0 .997.997 0 010-1.411l4.281-4.284h-6.855a6.037 6.037 0 01-5.041-2.699l-4.704-7.103a.998.998 0 011.664-1.101z" class="dlcls-1"/></svg><svg preserveAspectRatio="xMidYMid" viewBox="0 0 48 44" id="quicon__speach" xmlns="http://www.w3.org/2000/svg"><defs><style>.dmcls-1{fill:#1b1b1b;fill-rule:evenodd}</style></defs><path d="M45 34H18.481l-7.7 9.624a.998.998 0 01-1.112.32A1.002 1.002 0 019 43v-9H3c-1.654 0-3-1.346-3-3V3c0-1.654 1.346-3 3-3h42c1.654 0 3 1.346 3 3v28c0 1.654-1.346 3-3 3zm1-31c0-.551-.448-1-1-1H3c-.552 0-1 .449-1 1v28c0 .551.448 1 1 1h7a1 1 0 011 1v7.149l6.219-7.774c.012-.014.029-.02.042-.034.047-.054.104-.094.163-.136.048-.035.092-.073.144-.098.057-.028.119-.04.181-.056.066-.018.128-.036.196-.04.019-.001.036-.011.055-.011h27c.552 0 1-.449 1-1V3zm-8 15H10a1 1 0 110-2h28a1 1 0 110 2zm0-6H10a1 1 0 110-2h28a1 1 0 110 2zM10 22h18a1 1 0 110 2H10a1 1 0 110-2z" class="dmcls-1"/></svg><svg preserveAspectRatio="xMidYMid" viewBox="0 0 48 45.875" id="quicon__speedometer" xmlns="http://www.w3.org/2000/svg"><defs><style>.dncls-1{fill:#1b1b1b;fill-rule:evenodd}</style></defs><path d="M48 24.465c0 8.471-4.4 16.804-11.211 21.232a1.003 1.003 0 01-1.384-.292.995.995 0 01.292-1.379c2.826-1.837 5.191-4.416 6.943-7.405l-1.243-.936a.995.995 0 01-.195-1.396 1 1 0 011.401-.195l.988.744c1.472-3.068 2.326-6.472 2.394-9.919h-2.121a.998.998 0 110-1.995h2.06a22.597 22.597 0 00-2.427-8.785l-.934.635a.996.996 0 01-.562.173.995.995 0 01-.564-1.82l1.069-.727a22.435 22.435 0 00-6.924-6.986l-.752 1.115a1 1 0 01-1.66-1.112l.674-1C31.16 3.036 28.173 2.181 25 2.035v1.944a.998.998 0 01-1 .997c-.552 0-1-.446-1-.997V2.037c-3.172.146-6.159 1.001-8.844 2.381l.674.999a.996.996 0 01-.829 1.554 1 1 0 01-.831-.442l-.751-1.114A22.414 22.414 0 005.494 12.4l1.069.727a.995.995 0 01-.564 1.82.996.996 0 01-.562-.173l-.935-.635a22.576 22.576 0 00-2.428 8.785h2.062a.999.999 0 110 1.995H2.015c.068 3.459.918 6.865 2.385 9.926l.997-.751a1.001 1.001 0 011.401.195.993.993 0 01-.196 1.396l-1.25.942c1.762 3.002 4.143 5.578 6.992 7.394a.995.995 0 01-.539 1.837.994.994 0 01-.538-.157C4.317 41.271 0 33.134 0 24.465c0-.147.019-.29.022-.436C.018 23.992 0 23.96 0 23.922c0-.063.025-.118.036-.177a24.614 24.614 0 013.105-11.29.993.993 0 01.147-.348c.028-.041.069-.064.102-.099a24.454 24.454 0 018.644-8.718c.034-.029.055-.068.093-.094.06-.04.127-.053.192-.078C15.778 1.137 19.756-.009 24-.009c4.244 0 8.222 1.146 11.681 3.126.064.026.132.039.192.079.038.026.059.065.093.094a24.454 24.454 0 018.644 8.718c.033.036.074.058.102.099.074.108.12.227.147.347a24.622 24.622 0 013.105 11.291c.011.059.036.114.036.177 0 .038-.018.07-.022.107.003.146.022.289.022.436zm-24-2.538c.557 0 1.067.189 1.483.498l9.006-5.343a.999.999 0 111.022 1.714l-9.038 5.362c.01.087.027.172.027.262a2.5 2.5 0 01-2.5 2.493 2.5 2.5 0 01-2.5-2.493 2.5 2.5 0 012.5-2.493z" class="dncls-1"/></svg><svg preserveAspectRatio="xMidYMid" viewBox="0 0 47.656 47.812" id="quicon__star" xmlns="http://www.w3.org/2000/svg"><defs><style>.docls-1{fill:#1b1b1b;fill-rule:evenodd}</style></defs><path d="M39.008 47.815c-.365 0-.754-.139-1.154-.413l-13.316-9.141c-.353-.244-1.121-.244-1.474 0L9.75 47.401c-.867.594-1.749.509-2.207-.1-.308-.41-.367-.957-.176-1.623l4.019-14.26c.139-.494-.069-1.308-.428-1.674L.604 19.174c-.809-.825-.649-1.591-.543-1.881.106-.291.477-.976 1.623-1.081l13.702-1.286c.504-.046 1.171-.533 1.373-1l5.505-12.741c.469-1.081 1.231-1.198 1.537-1.198.306 0 1.069.117 1.537 1.197l5.508 12.743c.201.468.867.953 1.373.999l13.702 1.283c1.148.109 1.518.796 1.624 1.086.105.29.264 1.055-.543 1.879l-10.359 10.57c-.358.366-.565 1.179-.425 1.672l4.019 14.266c.189.662.13 1.208-.178 1.618a1.3 1.3 0 01-1.051.515zm-15.207-11.74c.69 0 1.35.192 1.859.542l12.347 8.476-3.699-13.133c-.336-1.18.059-2.735.919-3.613l9.998-10.203-13.191-1.233c-1.23-.116-2.524-1.058-3.011-2.194l-5.222-12.08-5.22 12.082c-.49 1.135-1.784 2.077-3.01 2.192L2.384 18.148l9.991 10.199c.858.876 1.255 2.429.922 3.613L9.596 45.092l12.346-8.475c.509-.35 1.169-.542 1.859-.542z" class="docls-1"/></svg><svg preserveAspectRatio="xMidYMid" viewBox="0 0 48 48" id="quicon__tag" xmlns="http://www.w3.org/2000/svg"><defs><style>.dpcls-1{fill:#1b1b1b;fill-rule:evenodd}</style></defs><path d="M46.624 22.841l-23.772 24.41A2.53 2.53 0 0121.05 48a2.52 2.52 0 01-1.79-.739L.74 28.738A2.517 2.517 0 010 26.947c0-.679.263-1.314.74-1.791L25.169 1.367C25.945.592 27.374 0 28.484 0h16.983A2.536 2.536 0 0148 2.533v16.984c0 1.109-.592 2.537-1.376 3.324zM46 2.533A.54.54 0 0045.467 2H28.484c-.575 0-1.504.384-1.91.791L2.145 26.579a.52.52 0 00-.145.368c0 .083.02.243.154.376l18.519 18.523a.531.531 0 00.377.154c.084 0 .244-.02.379-.154l23.77-24.41c.416-.416.801-1.344.801-1.919V2.533zm-7.499 11.466a4.505 4.505 0 01-4.5-4.5c0-2.481 2.019-4.5 4.5-4.5 2.482 0 4.5 2.019 4.5 4.5 0 2.482-2.018 4.5-4.5 4.5zm0-7a2.503 2.503 0 00-2.5 2.5c0 1.379 1.121 2.5 2.5 2.5s2.5-1.121 2.5-2.5c0-1.378-1.121-2.5-2.5-2.5z" class="dpcls-1"/></svg><svg preserveAspectRatio="xMidYMid" viewBox="0 0 48 48" id="quicon__target" xmlns="http://www.w3.org/2000/svg"><defs><style>.dqcls-1{fill:#1b1b1b;fill-rule:evenodd}</style></defs><path d="M47 25h-5.049C41.446 34.124 34.126 41.444 25 41.949V47a1 1 0 11-2 0v-5.051C13.874 41.444 6.554 34.124 6.049 25H1a1 1 0 110-2h5.049C6.554 13.875 13.874 6.555 23 6.05V1a1 1 0 112 0v5.05c9.126.505 16.446 7.825 16.951 16.95H47a1 1 0 110 2zM25 39.949C33.024 39.45 39.451 33.022 39.951 25h-6.003c-.47 4.717-4.231 8.479-8.948 8.949v6zM25 23h6.907c-.457-3.607-3.298-6.478-6.907-6.931V23zm6.907 2H25v6.931c3.609-.453 6.45-3.324 6.907-6.931zM23 25h-6.907c.457 3.607 3.298 6.477 6.907 6.931V25zm0 14.949v-6c-4.717-.47-8.478-4.232-8.948-8.949H8.049c.5 8.022 6.927 14.45 14.951 14.949zM23 8.05C14.976 8.549 8.549 14.977 8.049 23h6.003c.47-4.717 4.231-8.479 8.948-8.949V8.05zM16.093 23H23v-6.931c-3.609.454-6.45 3.324-6.907 6.931zM25 8.05v6.001c4.717.47 8.478 4.232 8.948 8.949h6.003C39.451 14.977 33.024 8.549 25 8.05z" class="dqcls-1"/></svg><svg preserveAspectRatio="xMidYMid" viewBox="0 0 40 47.688" id="quicon__unlock" xmlns="http://www.w3.org/2000/svg"><defs><style>.drcls-1{fill:#1b1b1b;fill-rule:evenodd}</style></defs><path d="M37 47.677H3c-1.654 0-3-1.336-3-2.978V18.89c0-1.642 1.346-3.171 3-3.171h5.633C6.58 9.625 9.782 2.961 15.898.751a12.005 12.005 0 019.175.398 11.86 11.86 0 016.206 6.722l.658 1.736a.993.993 0 01-.585 1.278 1.005 1.005 0 01-1.288-.58l-.661-1.745a9.896 9.896 0 00-5.175-5.612 10.003 10.003 0 00-7.646-.332C11.4 4.489 8.72 10.197 10.605 15.342l.139.377H37c1.654 0 3 1.529 3 3.171v25.809c0 1.642-1.346 2.978-3 2.978zm1-28.787c0-.548-.448-1.171-1-1.171H10.652c-.063.041-.12.091-.194.118a1.004 1.004 0 01-.913-.118H3c-.552 0-1 .623-1 1.171v25.809c0 .548.448.993 1 .993h34c.552 0 1-.445 1-.993V18.89zM21 31.612v5.146a.995.995 0 01-1 .992c-.553 0-1-.444-1-.992v-5.146c-1.161-.412-2-1.503-2-2.796 0-1.642 1.346-2.978 3-2.978s3 1.336 3 2.978c0 1.293-.839 2.384-2 2.796zm-1-3.788c-.552 0-1 .445-1 .992 0 .548.448.993 1 .993s1-.445 1-.993a.997.997 0 00-1-.992z" class="drcls-1"/></svg><svg preserveAspectRatio="xMidYMid" viewBox="0 0 48 44.875" id="quicon__wallet" xmlns="http://www.w3.org/2000/svg"><defs><style>.dscls-1{fill:#1b1b1b;fill-rule:evenodd}</style></defs><path d="M43.821 44.876H4.051a4.064 4.064 0 01-4.056-4.064V13.061c0-2.242 1.768-4.186 4.005-4.186h2.039V3.548c0-1.106.456-2.116 1.251-2.77.791-.652 1.864-.908 2.943-.696l33.719 4.49c3.549.779 3.889 2.973 3.921 3.337l.001.01.002.038v.69c.066.061.124.123.124.228v32c0 2.241-1.943 4.001-4.179 4.001zm-.216-38.342L9.911 2.049c-.558-.107-1.018-.008-1.352.267-.338.278-.524.716-.524 1.232v5.327H42c1.849 0 3.383-.321 3.829-1.016-.13-.285-.593-.966-2.224-1.325zM46 10.875c-.927.428-2.548 0-4 0H4c-1.137 0-2.01 1.044-2.01 2.186v27.751c0 1.141.924 2.07 2.061 2.07h39.77c1.136 0 2.179-.865 2.179-2.007v-30zM7.975 29.996a3 3 0 01-2.993-2.998 2.999 2.999 0 012.993-2.997 2.999 2.999 0 012.993 2.997 3 3 0 01-2.993 2.998zm0-4.001c-.55 0-.997.45-.997 1.003 0 .553.447 1.004.997 1.004.551 0 .998-.451.998-1.004 0-.553-.447-1.003-.998-1.003z" class="dscls-1"/></svg><svg preserveAspectRatio="xMidYMid" viewBox="0 0 48.375 48.407" id="quicon__wrench" xmlns="http://www.w3.org/2000/svg"><defs><style>.dtcls-1{fill:#1b1b1b;fill-rule:evenodd}</style></defs><path d="M44.252 24.096c-2.726 2.73-6.314 4.155-9.957 4.155-1.996 0-4.003-.455-5.901-1.331L11.411 46.397c-.007.008-.018.011-.026.019-.008.01-.011.022-.02.031a6.637 6.637 0 01-4.709 1.948 6.637 6.637 0 01-4.709-1.948 6.614 6.614 0 01-1.95-4.711c0-1.779.693-3.452 1.95-4.71.008-.008.02-.011.029-.019.008-.007.011-.018.02-.026L21.43 19.953a14.042 14.042 0 012.865-15.821C27.624.804 31.947-.588 36.467.218a1.008 1.008 0 01.553 1.688L31.452 7.75l1.589 4.769a4.492 4.492 0 002.829 2.83l4.75 1.583 5.842-5.845a1.007 1.007 0 011.705.536 14.123 14.123 0 01-3.915 12.473zm-2.647-5.297c-.271.27-.669.366-1.032.244l-5.34-1.781a6.518 6.518 0 01-4.105-4.105l-1.78-5.345a1.009 1.009 0 01.227-1.014l4.556-4.783-.13-.001c-3.074 0-5.957 1.221-8.28 3.544a12.047 12.047 0 00-2.162 14.183c.013.025.012.052.023.078a.925.925 0 01.058.197.975.975 0 01.023.185.937.937 0 01-.021.19 1.036 1.036 0 01-.048.184.974.974 0 01-.089.165.967.967 0 01-.124.162c-.02.021-.029.047-.05.066L3.365 38.461a4.617 4.617 0 00-1.352 3.275c0 1.242.483 2.409 1.36 3.285a4.647 4.647 0 006.556.008L27.367 25.03c.02-.023.047-.032.068-.052a.974.974 0 01.163-.126 1.01 1.01 0 01.162-.086.98.98 0 01.191-.051c.061-.011.12-.019.182-.019a.97.97 0 01.192.024.94.94 0 01.192.057c.028.012.057.011.083.025 4.725 2.515 10.443 1.657 14.227-2.133a12.104 12.104 0 003.545-8.639l-4.767 4.769z" class="dtcls-1"/></svg><svg viewBox="0 0 408 408" id="redo" xmlns="http://www.w3.org/2000/svg"><path d="M0 0v178.5h178.5L96.9 96.9C125 68.8 160.6 51 204 51c84.1 0 153 68.8 153 153s-68.9 153-153 153c-66.3 0-122.4-43.4-142.8-102H7.6c23 86.7 102 153 196.4 153 112.2 0 204-91.8 204-204S316.2 0 204 0C147.9 0 96.9 23 61.2 61.2L0 0z"/></svg><svg viewBox="0 0 510 510" id="success" xmlns="http://www.w3.org/2000/svg"><path d="M150.45 206.55l-35.7 35.7L229.5 357l255-255-35.7-35.7-219.3 219.3-79.05-79.05zM459 255c0 112.2-91.8 204-204 204S51 367.2 51 255 142.8 51 255 51c20.4 0 38.25 2.55 56.1 7.65l40.801-40.8C321.3 7.65 288.15 0 255 0 114.75 0 0 114.75 0 255s114.75 255 255 255 255-114.75 255-255h-51z"/></svg><svg viewBox="0 0 511.757 511.757" id="thinking" xmlns="http://www.w3.org/2000/svg"><path d="M28.323 227.555c0 125.681 101.887 227.555 227.555 227.555 125.68 0 227.555-101.874 227.555-227.555C483.433 101.887 381.56 0 255.879 0 130.21 0 28.323 101.887 28.323 227.555" fill="#ffcc4d"/><g fill="#664500"><path d="M218.986 149.334c0 19.641-12.742 35.555-28.445 35.555s-28.445-15.915-28.445-35.555c0-19.626 12.743-35.555 28.445-35.555s28.445 15.927 28.445 35.555M369.656 163.555c0 19.641-12.729 35.555-28.445 35.555-15.701 0-28.445-15.915-28.445-35.555 0-19.626 12.743-35.555 28.445-35.555 15.716 0 28.445 15.929 28.445 35.555M137.421 90.069a13.047 13.047 0 01-5.561-5.66c-3.073-6.102-.569-13.184 5.589-15.829 60.672-26.026 109.497-.611 111.545.484 6.158 3.285 8.647 10.639 5.561 16.412-3.073 5.76-10.525 7.765-16.683 4.523-1.748-.91-40.277-20.367-89.287.668-3.654 1.55-7.779 1.208-11.164-.598M209.556 278.358c-1.934-1.807-3.356-4.168-3.925-6.913-1.407-6.67 2.816-12.885 9.458-13.853 65.309-9.642 105.984 27.435 107.705 29.014 5.12 4.75 5.617 12.473 1.166 17.28-4.438 4.779-12.16 4.808-17.266.085-1.479-1.309-33.735-29.98-86.5-22.201-3.939.584-7.835-.796-10.638-3.413"/><path d="M290.452 143.402a13.15 13.15 0 01-5.148-6.03c-2.66-6.286.327-13.198 6.641-15.417 62.307-21.845 109.297 6.826 111.275 8.064 5.902 3.697 7.879 11.192 4.422 16.753-3.44 5.547-11.036 7.04-16.938 3.385-1.706-1.038-38.799-23.053-89.132-5.405-3.752 1.31-7.848.684-11.12-1.35"/></g><path d="M245.581 499.655s17.992-5.845 20.324-19.229c2.46-13.81-8.875-16.597-8.875-16.597s14.805-2.959 16.669-19.57c1.749-15.645-12.26-19.385-12.26-19.385s13.795-5.689 14.45-21.888c.54-13.639-14.151-20.309-14.151-20.309s71.65-17.35 79.005-19.057c7.338-1.721 18.787-8.761 15.217-24.106-3.541-15.36-17.124-15.9-24.149-14.265-7.026 1.65-95.915 22.286-126.577 29.426-3.272.754-18.603 4.295-20.467 4.75-7.68 1.806-11.165-1.579-5.76-7.281 7.24-7.623 11.848-16.058 13.47-30.051 1.692-14.734-3.3-32.91-6.16-39.95-5.318-13.1-14.293-23.453-24.66-27.008-16.186-5.546-27.677 4.565-21.932 22.201 8.59 26.383 2.973 48-11.848 61.057-34.83 30.677-51.043 52.55-40.248 99.17 11.761 50.846 62.251 83.57 113.095 71.795 2.688-.6 44.857-9.703 44.857-9.703" fill="#f4900c"/></svg><svg viewBox="0 0 512 512" id="upload-icon" xmlns="http://www.w3.org/2000/svg"><path d="M380.032 133.472l-112-128C264.992 2.016 260.608 0 256 0s-8.992 2.016-12.032 5.472l-112 128c-4.128 4.736-5.152 11.424-2.528 17.152A16.013 16.013 0 00144 160h64v208c0 8.832 7.168 16 16 16h64c8.832 0 16-7.168 16-16V160h64a15.96 15.96 0 0014.56-9.376c2.592-5.728 1.632-12.448-2.528-17.152z"/><path d="M432 352v96H80v-96H16v128c0 17.696 14.336 32 32 32h416c17.696 0 32-14.304 32-32V352h-64z"/></svg><svg viewBox="0 0 258.75 258.75" id="user" xmlns="http://www.w3.org/2000/svg"><circle cx="129.375" cy="60" r="60"/><path d="M129.375 150c-60.061 0-108.75 48.689-108.75 108.75h217.5c0-60.061-48.689-108.75-108.75-108.75z"/></svg></svg>